<?xml version="1.0" encoding="UTF-8" standalone="no"?>
<!DOCTYPE svg PUBLIC "-//W3C//DTD SVG 1.0//EN"
 "http://www.w3.org/TR/2001/REC-SVG-20010904/DTD/svg10.dtd" [
 <!ATTLIST svg xmlns:xlink CDATA #FIXED "http://www.w3.org/1999/xlink">
]>
<!-- Generated by Graphviz version 2.18 (Wed Aug &#160;6 10:29:47 UTC 2008)
     For user: (jarek)  -->
<!-- Title: controllers_diagram Pages: 1 -->
<svg width="1049pt" height="1045pt"
 viewBox="0.00 0.00 1049.00 1045.00" xmlns="http://www.w3.org/2000/svg" xmlns:xlink="http://www.w3.org/1999/xlink">
<g id="graph0" class="graph" transform="scale(1 1) rotate(0) translate(4 1041)">
<title>controllers_diagram</title>
<polygon style="fill:white;stroke:white;" points="-4,4 -4,-1041 1045,-1041 1045,4 -4,4"/>
<!-- _diagram_info -->
<g id="node1" class="node"><title>_diagram_info</title>
<text text-anchor="start" x="834" y="-210.4" style="font-family:Times New Roman;font-size:11.00;">Controllers diagram</text>
<text text-anchor="start" x="834" y="-193.4" style="font-family:Times New Roman;font-size:11.00;">Date: Feb 08 2009 &#45; 13:43</text>
<text text-anchor="start" x="834" y="-176.4" style="font-family:Times New Roman;font-size:11.00;">Migration version: 20090208112934</text>
<text text-anchor="start" x="834" y="-159.4" style="font-family:Times New Roman;font-size:11.00;">Generated by RailRoad 0.5.0</text>
</g>
<!-- ReportsController -->
<g id="node2" class="node"><title>ReportsController</title>
<polyline style="fill:none;stroke:black;" points="13,-308 250,-308 "/>
<path style="fill:none;stroke:black;" d="M250,-308C256,-308 262,-314 262,-320"/>
<polyline style="fill:none;stroke:black;" points="262,-320 262,-701 "/>
<path style="fill:none;stroke:black;" d="M262,-701C262,-707 256,-713 250,-713"/>
<polyline style="fill:none;stroke:black;" points="250,-713 13,-713 "/>
<path style="fill:none;stroke:black;" d="M13,-713C7,-713 1,-707 1,-701"/>
<polyline style="fill:none;stroke:black;" points="1,-701 1,-320 "/>
<path style="fill:none;stroke:black;" d="M1,-320C1,-314 7,-308 13,-308"/>
<text text-anchor="middle" x="131" y="-695.9" style="font-family:Times New Roman;font-size:11.00;">ReportsController</text>
<polyline style="fill:none;stroke:black;" points="1,-688 262,-688 "/>
<text text-anchor="start" x="8.5" y="-670.9" style="font-family:Times New Roman;font-size:11.00;">copy_report</text>
<text text-anchor="start" x="8.5" y="-653.9" style="font-family:Times New Roman;font-size:11.00;">create</text>
<text text-anchor="start" x="8.5" y="-636.9" style="font-family:Times New Roman;font-size:11.00;">destroy</text>
<text text-anchor="start" x="8.5" y="-619.9" style="font-family:Times New Roman;font-size:11.00;">edit</text>
<text text-anchor="start" x="8.5" y="-602.9" style="font-family:Times New Roman;font-size:11.00;">get_graph_data</text>
<text text-anchor="start" x="8.5" y="-585.9" style="font-family:Times New Roman;font-size:11.00;">index</text>
<text text-anchor="start" x="8.5" y="-568.9" style="font-family:Times New Roman;font-size:11.00;">new</text>
<text text-anchor="start" x="8.5" y="-551.9" style="font-family:Times New Roman;font-size:11.00;">show</text>
<text text-anchor="start" x="8.5" y="-534.9" style="font-family:Times New Roman;font-size:11.00;">update</text>
<polyline style="fill:none;stroke:black;" points="1,-527 262,-527 "/>
<polyline style="fill:none;stroke:black;" points="1,-503 262,-503 "/>
<text text-anchor="start" x="8.5" y="-485.9" style="font-family:Times New Roman;font-size:11.00;">cache_graph_data</text>
<text text-anchor="start" x="8.5" y="-468.9" style="font-family:Times New Roman;font-size:11.00;">calculate_and_group_values_by_currencies</text>
<text text-anchor="start" x="8.5" y="-451.9" style="font-family:Times New Roman;font-size:11.00;">generate_share_report</text>
<text text-anchor="start" x="8.5" y="-434.9" style="font-family:Times New Roman;font-size:11.00;">generate_value_report</text>
<text text-anchor="start" x="8.5" y="-417.9" style="font-family:Times New Roman;font-size:11.00;">get_graph_object</text>
<text text-anchor="start" x="8.5" y="-400.9" style="font-family:Times New Roman;font-size:11.00;">get_report_from_params</text>
<text text-anchor="start" x="8.5" y="-383.9" style="font-family:Times New Roman;font-size:11.00;">get_report_partial_name</text>
<text text-anchor="start" x="8.5" y="-366.9" style="font-family:Times New Roman;font-size:11.00;">get_x_axis_for_value_report</text>
<text text-anchor="start" x="8.5" y="-349.9" style="font-family:Times New Roman;font-size:11.00;">get_y_axis_for_report</text>
<text text-anchor="start" x="8.5" y="-332.9" style="font-family:Times New Roman;font-size:11.00;">prepare_reports</text>
<text text-anchor="start" x="8.5" y="-315.9" style="font-family:Times New Roman;font-size:11.00;">prepare_system_reports</text>
</g>
<!-- ExchangesController -->
<g id="node3" class="node"><title>ExchangesController</title>
<polyline style="fill:none;stroke:black;" points="739,-383 863,-383 "/>
<path style="fill:none;stroke:black;" d="M863,-383C869,-383 875,-389 875,-395"/>
<polyline style="fill:none;stroke:black;" points="875,-395 875,-623 "/>
<path style="fill:none;stroke:black;" d="M875,-623C875,-629 869,-635 863,-635"/>
<polyline style="fill:none;stroke:black;" points="863,-635 739,-635 "/>
<path style="fill:none;stroke:black;" d="M739,-635C733,-635 727,-629 727,-623"/>
<polyline style="fill:none;stroke:black;" points="727,-623 727,-395 "/>
<path style="fill:none;stroke:black;" d="M727,-395C727,-389 733,-383 739,-383"/>
<text text-anchor="middle" x="801" y="-617.9" style="font-family:Times New Roman;font-size:11.00;">ExchangesController</text>
<polyline style="fill:none;stroke:black;" points="727,-610 875,-610 "/>
<text text-anchor="start" x="735" y="-593.4" style="font-family:Times New Roman;font-size:11.00;">create</text>
<text text-anchor="start" x="735" y="-576.4" style="font-family:Times New Roman;font-size:11.00;">create_remote</text>
<text text-anchor="start" x="735" y="-559.4" style="font-family:Times New Roman;font-size:11.00;">destroy</text>
<text text-anchor="start" x="735" y="-542.4" style="font-family:Times New Roman;font-size:11.00;">edit</text>
<text text-anchor="start" x="735" y="-525.4" style="font-family:Times New Roman;font-size:11.00;">index</text>
<text text-anchor="start" x="735" y="-508.4" style="font-family:Times New Roman;font-size:11.00;">new</text>
<text text-anchor="start" x="735" y="-491.4" style="font-family:Times New Roman;font-size:11.00;">show</text>
<text text-anchor="start" x="735" y="-474.4" style="font-family:Times New Roman;font-size:11.00;">update</text>
<polyline style="fill:none;stroke:black;" points="727,-466 875,-466 "/>
<polyline style="fill:none;stroke:black;" points="727,-442 875,-442 "/>
<text text-anchor="start" x="735" y="-424.9" style="font-family:Times New Roman;font-size:11.00;">check_perm_read</text>
<text text-anchor="start" x="735" y="-407.9" style="font-family:Times New Roman;font-size:11.00;">check_perm_write</text>
<text text-anchor="start" x="735" y="-390.9" style="font-family:Times New Roman;font-size:11.00;">find_and_set_exchange</text>
</g>
<!-- CategoriesController -->
<g id="node4" class="node"><title>CategoriesController</title>
<polyline style="fill:none;stroke:black;" points="650,-8 783,-8 "/>
<path style="fill:none;stroke:black;" d="M783,-8C789,-8 795,-14 795,-20"/>
<polyline style="fill:none;stroke:black;" points="795,-20 795,-231 "/>
<path style="fill:none;stroke:black;" d="M795,-231C795,-237 789,-243 783,-243"/>
<polyline style="fill:none;stroke:black;" points="783,-243 650,-243 "/>
<path style="fill:none;stroke:black;" d="M650,-243C644,-243 638,-237 638,-231"/>
<polyline style="fill:none;stroke:black;" points="638,-231 638,-20 "/>
<path style="fill:none;stroke:black;" d="M638,-20C638,-14 644,-8 650,-8"/>
<text text-anchor="middle" x="716" y="-225.9" style="font-family:Times New Roman;font-size:11.00;">CategoriesController</text>
<polyline style="fill:none;stroke:black;" points="638,-218 795,-218 "/>
<text text-anchor="start" x="645.5" y="-201.4" style="font-family:Times New Roman;font-size:11.00;">create</text>
<text text-anchor="start" x="645.5" y="-184.4" style="font-family:Times New Roman;font-size:11.00;">destroy</text>
<text text-anchor="start" x="645.5" y="-167.4" style="font-family:Times New Roman;font-size:11.00;">edit</text>
<text text-anchor="start" x="645.5" y="-150.4" style="font-family:Times New Roman;font-size:11.00;">index</text>
<text text-anchor="start" x="645.5" y="-133.4" style="font-family:Times New Roman;font-size:11.00;">new</text>
<text text-anchor="start" x="645.5" y="-116.4" style="font-family:Times New Roman;font-size:11.00;">search</text>
<text text-anchor="start" x="645.5" y="-99.4" style="font-family:Times New Roman;font-size:11.00;">show</text>
<text text-anchor="start" x="645.5" y="-82.4" style="font-family:Times New Roman;font-size:11.00;">update</text>
<polyline style="fill:none;stroke:black;" points="638,-74 795,-74 "/>
<polyline style="fill:none;stroke:black;" points="638,-50 795,-50 "/>
<text text-anchor="start" x="645.5" y="-33.4" style="font-family:Times New Roman;font-size:11.00;">check_perm</text>
<text text-anchor="start" x="645.5" y="-16.4" style="font-family:Times New Roman;font-size:11.00;">format_openinig_balance</text>
</g>
<!-- CurrenciesController -->
<g id="node5" class="node"><title>CurrenciesController</title>
<polyline style="fill:none;stroke:black;" points="407,-784 528,-784 "/>
<path style="fill:none;stroke:black;" d="M528,-784C534,-784 540,-790 540,-796"/>
<polyline style="fill:none;stroke:black;" points="540,-796 540,-1024 "/>
<path style="fill:none;stroke:black;" d="M540,-1024C540,-1030 534,-1036 528,-1036"/>
<polyline style="fill:none;stroke:black;" points="528,-1036 407,-1036 "/>
<path style="fill:none;stroke:black;" d="M407,-1036C401,-1036 395,-1030 395,-1024"/>
<polyline style="fill:none;stroke:black;" points="395,-1024 395,-796 "/>
<path style="fill:none;stroke:black;" d="M395,-796C395,-790 401,-784 407,-784"/>
<text text-anchor="middle" x="467" y="-1018.9" style="font-family:Times New Roman;font-size:11.00;">CurrenciesController</text>
<polyline style="fill:none;stroke:black;" points="395,-1011 540,-1011 "/>
<text text-anchor="start" x="402.5" y="-994.4" style="font-family:Times New Roman;font-size:11.00;">create</text>
<text text-anchor="start" x="402.5" y="-977.4" style="font-family:Times New Roman;font-size:11.00;">create_remote</text>
<text text-anchor="start" x="402.5" y="-960.4" style="font-family:Times New Roman;font-size:11.00;">destroy</text>
<text text-anchor="start" x="402.5" y="-943.4" style="font-family:Times New Roman;font-size:11.00;">edit</text>
<text text-anchor="start" x="402.5" y="-926.4" style="font-family:Times New Roman;font-size:11.00;">index</text>
<text text-anchor="start" x="402.5" y="-909.4" style="font-family:Times New Roman;font-size:11.00;">new</text>
<text text-anchor="start" x="402.5" y="-892.4" style="font-family:Times New Roman;font-size:11.00;">show</text>
<text text-anchor="start" x="402.5" y="-875.4" style="font-family:Times New Roman;font-size:11.00;">update</text>
<polyline style="fill:none;stroke:black;" points="395,-867 540,-867 "/>
<polyline style="fill:none;stroke:black;" points="395,-843 540,-843 "/>
<text text-anchor="start" x="402.5" y="-825.9" style="font-family:Times New Roman;font-size:11.00;">check_perm_read</text>
<text text-anchor="start" x="402.5" y="-808.9" style="font-family:Times New Roman;font-size:11.00;">check_perm_write</text>
<text text-anchor="start" x="402.5" y="-791.9" style="font-family:Times New Roman;font-size:11.00;">find_and_set_currency</text>
</g>
<!-- UsersController -->
<g id="node6" class="node"><title>UsersController</title>
<polyline style="fill:none;stroke:black;" points="727,-813 859,-813 "/>
<path style="fill:none;stroke:black;" d="M859,-813C865,-813 871,-819 871,-825"/>
<polyline style="fill:none;stroke:black;" points="871,-825 871,-1002 "/>
<path style="fill:none;stroke:black;" d="M871,-1002C871,-1008 865,-1014 859,-1014"/>
<polyline style="fill:none;stroke:black;" points="859,-1014 727,-1014 "/>
<path style="fill:none;stroke:black;" d="M727,-1014C721,-1014 715,-1008 715,-1002"/>
<polyline style="fill:none;stroke:black;" points="715,-1002 715,-825 "/>
<path style="fill:none;stroke:black;" d="M715,-825C715,-819 721,-813 727,-813"/>
<text text-anchor="middle" x="793" y="-996.9" style="font-family:Times New Roman;font-size:11.00;">UsersController</text>
<polyline style="fill:none;stroke:black;" points="715,-989 871,-989 "/>
<text text-anchor="start" x="723" y="-972.4" style="font-family:Times New Roman;font-size:11.00;">activate</text>
<text text-anchor="start" x="723" y="-955.4" style="font-family:Times New Roman;font-size:11.00;">create</text>
<text text-anchor="start" x="723" y="-938.4" style="font-family:Times New Roman;font-size:11.00;">destroy</text>
<text text-anchor="start" x="723" y="-921.4" style="font-family:Times New Roman;font-size:11.00;">edit</text>
<text text-anchor="start" x="723" y="-904.4" style="font-family:Times New Roman;font-size:11.00;">new</text>
<text text-anchor="start" x="723" y="-887.4" style="font-family:Times New Roman;font-size:11.00;">update</text>
<polyline style="fill:none;stroke:black;" points="715,-879 871,-879 "/>
<polyline style="fill:none;stroke:black;" points="715,-855 871,-855 "/>
<text text-anchor="start" x="723" y="-838.4" style="font-family:Times New Roman;font-size:11.00;">check_perm</text>
<text text-anchor="start" x="723" y="-821.4" style="font-family:Times New Roman;font-size:11.00;">prepare_arrays_for_view</text>
</g>
<!-- SessionsController -->
<g id="node7" class="node"><title>SessionsController</title>
<polyline style="fill:none;stroke:black;" points="91,-840 189,-840 "/>
<path style="fill:none;stroke:black;" d="M189,-840C195,-840 201,-846 201,-852"/>
<polyline style="fill:none;stroke:black;" points="201,-852 201,-978 "/>
<path style="fill:none;stroke:black;" d="M201,-978C201,-984 195,-990 189,-990"/>
<polyline style="fill:none;stroke:black;" points="189,-990 91,-990 "/>
<path style="fill:none;stroke:black;" d="M91,-990C85,-990 79,-984 79,-978"/>
<polyline style="fill:none;stroke:black;" points="79,-978 79,-852 "/>
<path style="fill:none;stroke:black;" d="M79,-852C79,-846 85,-840 91,-840"/>
<text text-anchor="middle" x="140" y="-972.9" style="font-family:Times New Roman;font-size:11.00;">SessionsController</text>
<polyline style="fill:none;stroke:black;" points="79,-965 201,-965 "/>
<text text-anchor="start" x="87" y="-948.4" style="font-family:Times New Roman;font-size:11.00;">create</text>
<text text-anchor="start" x="87" y="-931.4" style="font-family:Times New Roman;font-size:11.00;">default</text>
<text text-anchor="start" x="87" y="-914.4" style="font-family:Times New Roman;font-size:11.00;">destroy</text>
<text text-anchor="start" x="87" y="-897.4" style="font-family:Times New Roman;font-size:11.00;">new</text>
<polyline style="fill:none;stroke:black;" points="79,-889 201,-889 "/>
<text text-anchor="start" x="87" y="-871.9" style="font-family:Times New Roman;font-size:11.00;">note_failed_signin</text>
<polyline style="fill:none;stroke:black;" points="79,-864 201,-864 "/>
</g>
<!-- TransfersController -->
<g id="node8" class="node"><title>TransfersController</title>
<polyline style="fill:none;stroke:black;" points="147,-1 282,-1 "/>
<path style="fill:none;stroke:black;" d="M282,-1C288,-1 294,-7 294,-13"/>
<polyline style="fill:none;stroke:black;" points="294,-13 294,-241 "/>
<path style="fill:none;stroke:black;" d="M294,-241C294,-247 288,-253 282,-253"/>
<polyline style="fill:none;stroke:black;" points="282,-253 147,-253 "/>
<path style="fill:none;stroke:black;" d="M147,-253C141,-253 135,-247 135,-241"/>
<polyline style="fill:none;stroke:black;" points="135,-241 135,-13 "/>
<path style="fill:none;stroke:black;" d="M135,-13C135,-7 141,-1 147,-1"/>
<text text-anchor="middle" x="214" y="-235.9" style="font-family:Times New Roman;font-size:11.00;">TransfersController</text>
<polyline style="fill:none;stroke:black;" points="135,-228 294,-228 "/>
<text text-anchor="start" x="142.5" y="-211.4" style="font-family:Times New Roman;font-size:11.00;">add_form_error</text>
<text text-anchor="start" x="142.5" y="-194.4" style="font-family:Times New Roman;font-size:11.00;">create</text>
<text text-anchor="start" x="142.5" y="-177.4" style="font-family:Times New Roman;font-size:11.00;">destroy</text>
<text text-anchor="start" x="142.5" y="-160.4" style="font-family:Times New Roman;font-size:11.00;">edit</text>
<text text-anchor="start" x="142.5" y="-143.4" style="font-family:Times New Roman;font-size:11.00;">hide_details</text>
<text text-anchor="start" x="142.5" y="-126.4" style="font-family:Times New Roman;font-size:11.00;">index</text>
<text text-anchor="start" x="142.5" y="-109.4" style="font-family:Times New Roman;font-size:11.00;">quick_transfer</text>
<text text-anchor="start" x="142.5" y="-92.4" style="font-family:Times New Roman;font-size:11.00;">search</text>
<text text-anchor="start" x="142.5" y="-75.4" style="font-family:Times New Roman;font-size:11.00;">show_details</text>
<text text-anchor="start" x="142.5" y="-58.4" style="font-family:Times New Roman;font-size:11.00;">update</text>
<polyline style="fill:none;stroke:black;" points="135,-50 294,-50 "/>
<polyline style="fill:none;stroke:black;" points="135,-26 294,-26 "/>
<text text-anchor="start" x="142.5" y="-8.9" style="font-family:Times New Roman;font-size:11.00;">check_perm_for_transfer</text>
</g>
<!-- ApplicationController -->
<g id="node9" class="node"><title>ApplicationController</title>
<polyline style="fill:none;stroke:black;" points="351,-382 582,-382 "/>
<path style="fill:none;stroke:black;" d="M582,-382C588,-382 594,-388 594,-394"/>
<polyline style="fill:none;stroke:black;" points="594,-394 594,-589 "/>
<path style="fill:none;stroke:black;" d="M594,-589C594,-595 588,-601 582,-601"/>
<polyline style="fill:none;stroke:black;" points="582,-601 351,-601 "/>
<path style="fill:none;stroke:black;" d="M351,-601C345,-601 339,-595 339,-589"/>
<polyline style="fill:none;stroke:black;" points="339,-589 339,-394 "/>
<path style="fill:none;stroke:black;" d="M339,-394C339,-388 345,-382 351,-382"/>
<text text-anchor="middle" x="466" y="-583.9" style="font-family:Times New Roman;font-size:11.00;">ApplicationController</text>
<polyline style="fill:none;stroke:black;" points="339,-576 594,-576 "/>
<text text-anchor="start" x="346.5" y="-559.4" style="font-family:Times New Roman;font-size:11.00;">period_changed_end</text>
<text text-anchor="start" x="346.5" y="-542.4" style="font-family:Times New Roman;font-size:11.00;">period_changed_start</text>
<polyline style="fill:none;stroke:black;" points="339,-534 594,-534 "/>
<text text-anchor="start" x="346.5" y="-516.9" style="font-family:Times New Roman;font-size:11.00;">filter_parameters</text>
<polyline style="fill:none;stroke:black;" points="339,-509 594,-509 "/>
<text text-anchor="start" x="346.5" y="-491.9" style="font-family:Times New Roman;font-size:11.00;">create_empty_transfer</text>
<text text-anchor="start" x="346.5" y="-474.9" style="font-family:Times New Roman;font-size:11.00;">get_period</text>
<text text-anchor="start" x="346.5" y="-457.9" style="font-family:Times New Roman;font-size:11.00;">render_transfer_table</text>
<text text-anchor="start" x="346.5" y="-440.9" style="font-family:Times New Roman;font-size:11.00;">set_current_category</text>
<text text-anchor="start" x="346.5" y="-423.9" style="font-family:Times New Roman;font-size:11.00;">set_start_end_days</text>
<text text-anchor="start" x="346.5" y="-406.9" style="font-family:Times New Roman;font-size:11.00;">set_transfers_and_values</text>
<text text-anchor="start" x="346.5" y="-389.9" style="font-family:Times New Roman;font-size:11.00;">set_variables_for_rendering_transfer_table</text>
</g>
<!-- ApplicationController&#45;&gt;ReportsController -->
<g id="edge2" class="edge"><title>ApplicationController&#45;&gt;ReportsController</title>
<path style="fill:none;stroke:black;" d="M329,-500C307,-501 284,-502 262,-504"/>
<polygon style="fill:none;stroke:black;" points="329.398,-503.478 339,-499 328.701,-496.512 329.398,-503.478"/>
</g>
<!-- ApplicationController&#45;&gt;ExchangesController -->
<g id="edge4" class="edge"><title>ApplicationController&#45;&gt;ExchangesController</title>
<path style="fill:none;stroke:black;" d="M604,-498C646,-500 691,-503 727,-505"/>
<polygon style="fill:none;stroke:black;" points="604,-494.5 594,-498 604,-501.5 604,-494.5"/>
</g>
<!-- ApplicationController&#45;&gt;CategoriesController -->
<g id="edge6" class="edge"><title>ApplicationController&#45;&gt;CategoriesController</title>
<path style="fill:none;stroke:black;" d="M547,-374C576,-331 609,-282 638,-240"/>
<polygon style="fill:none;stroke:black;" points="544.2,-371.9 541,-382 549.8,-376.1 544.2,-371.9"/>
</g>
<!-- ApplicationController&#45;&gt;CurrenciesController -->
<g id="edge8" class="edge"><title>ApplicationController&#45;&gt;CurrenciesController</title>
<path style="fill:none;stroke:black;" d="M466,-611C466,-665 467,-730 467,-784"/>
<polygon style="fill:none;stroke:black;" points="469.5,-611 466,-601 462.5,-611 469.5,-611"/>
</g>
<!-- ApplicationController&#45;&gt;UsersController -->
<g id="edge10" class="edge"><title>ApplicationController&#45;&gt;UsersController</title>
<path style="fill:none;stroke:black;" d="M557,-609C607,-673 667,-752 715,-813"/>
<polygon style="fill:none;stroke:black;" points="559.8,-606.9 551,-601 554.2,-611.1 559.8,-606.9"/>
</g>
<!-- ApplicationController&#45;&gt;SessionsController -->
<g id="edge12" class="edge"><title>ApplicationController&#45;&gt;SessionsController</title>
<path style="fill:none;stroke:black;" d="M376,-609C319,-683 247,-776 198,-840"/>
<polygon style="fill:none;stroke:black;" points="378.8,-611.1 382,-601 373.2,-606.9 378.8,-611.1"/>
</g>
<!-- ApplicationController&#45;&gt;TransfersController -->
<g id="edge14" class="edge"><title>ApplicationController&#45;&gt;TransfersController</title>
<path style="fill:none;stroke:black;" d="M384,-374C356,-332 323,-285 294,-243"/>
<polygon style="fill:none;stroke:black;" points="381.2,-376.1 390,-382 386.8,-371.9 381.2,-376.1"/>
</g>
</g>
</svg>
