<?xml version="1.0" encoding="UTF-8" standalone="no"?>
<!DOCTYPE svg PUBLIC "-//W3C//DTD SVG 1.0//EN"
 "http://www.w3.org/TR/2001/REC-SVG-20010904/DTD/svg10.dtd" [
 <!ATTLIST svg xmlns:xlink CDATA #FIXED "http://www.w3.org/1999/xlink">
]>
<!-- Generated by Graphviz version 2.18 (Wed Aug &#160;6 10:29:47 UTC 2008)
     For user: (jarek)  -->
<!-- Title: controllers_diagram Pages: 1 -->
<svg width="1208pt" height="1339pt"
 viewBox="0.00 0.00 1208.00 1339.00" xmlns="http://www.w3.org/2000/svg" xmlns:xlink="http://www.w3.org/1999/xlink">
<g id="graph0" class="graph" transform="scale(1 1) rotate(0) translate(4 1335)">
<title>controllers_diagram</title>
<polygon style="fill:white;stroke:white;" points="-4,4 -4,-1335 1204,-1335 1204,4 -4,4"/>
<!-- _diagram_info -->
<g id="node1" class="node"><title>_diagram_info</title>
<text text-anchor="start" x="890.5" y="-648.4" style="font-family:Times New Roman;font-size:11.00;">Controllers diagram</text>
<text text-anchor="start" x="890.5" y="-631.4" style="font-family:Times New Roman;font-size:11.00;">Date: Apr 14 2009 &#45; 13:56</text>
<text text-anchor="start" x="890.5" y="-614.4" style="font-family:Times New Roman;font-size:11.00;">Migration version: 20090414090944</text>
<text text-anchor="start" x="890.5" y="-597.4" style="font-family:Times New Roman;font-size:11.00;">Generated by RailRoad 0.5.0</text>
</g>
<!-- ReportsController -->
<g id="node2" class="node"><title>ReportsController</title>
<polyline style="fill:none;stroke:black;" points="678,-197 849,-197 "/>
<path style="fill:none;stroke:black;" d="M849,-197C855,-197 861,-203 861,-209"/>
<polyline style="fill:none;stroke:black;" points="861,-209 861,-522 "/>
<path style="fill:none;stroke:black;" d="M861,-522C861,-528 855,-534 849,-534"/>
<polyline style="fill:none;stroke:black;" points="849,-534 678,-534 "/>
<path style="fill:none;stroke:black;" d="M678,-534C672,-534 666,-528 666,-522"/>
<polyline style="fill:none;stroke:black;" points="666,-522 666,-209 "/>
<path style="fill:none;stroke:black;" d="M666,-209C666,-203 672,-197 678,-197"/>
<text text-anchor="middle" x="763" y="-516.9" style="font-family:Times New Roman;font-size:11.00;">ReportsController</text>
<polyline style="fill:none;stroke:black;" points="666,-509 861,-509 "/>
<text text-anchor="start" x="673.5" y="-491.9" style="font-family:Times New Roman;font-size:11.00;">copy_report</text>
<text text-anchor="start" x="673.5" y="-474.9" style="font-family:Times New Roman;font-size:11.00;">create</text>
<text text-anchor="start" x="673.5" y="-457.9" style="font-family:Times New Roman;font-size:11.00;">destroy</text>
<text text-anchor="start" x="673.5" y="-440.9" style="font-family:Times New Roman;font-size:11.00;">edit</text>
<text text-anchor="start" x="673.5" y="-423.9" style="font-family:Times New Roman;font-size:11.00;">get_graph_data</text>
<text text-anchor="start" x="673.5" y="-406.9" style="font-family:Times New Roman;font-size:11.00;">index</text>
<text text-anchor="start" x="673.5" y="-389.9" style="font-family:Times New Roman;font-size:11.00;">new</text>
<text text-anchor="start" x="673.5" y="-372.9" style="font-family:Times New Roman;font-size:11.00;">show</text>
<text text-anchor="start" x="673.5" y="-355.9" style="font-family:Times New Roman;font-size:11.00;">update</text>
<polyline style="fill:none;stroke:black;" points="666,-348 861,-348 "/>
<polyline style="fill:none;stroke:black;" points="666,-324 861,-324 "/>
<text text-anchor="start" x="673.5" y="-306.9" style="font-family:Times New Roman;font-size:11.00;">cache_graph_data</text>
<text text-anchor="start" x="673.5" y="-289.9" style="font-family:Times New Roman;font-size:11.00;">get_report_from_params</text>
<text text-anchor="start" x="673.5" y="-272.9" style="font-family:Times New Roman;font-size:11.00;">get_report_partial_name</text>
<text text-anchor="start" x="673.5" y="-255.9" style="font-family:Times New Roman;font-size:11.00;">prepare_flow_report_variables</text>
<text text-anchor="start" x="673.5" y="-238.9" style="font-family:Times New Roman;font-size:11.00;">prepare_graph_report_variables</text>
<text text-anchor="start" x="673.5" y="-221.9" style="font-family:Times New Roman;font-size:11.00;">prepare_reports</text>
<text text-anchor="start" x="673.5" y="-204.9" style="font-family:Times New Roman;font-size:11.00;">report_cache_key</text>
</g>
<!-- ExchangesController -->
<g id="node3" class="node"><title>ExchangesController</title>
<polyline style="fill:none;stroke:black;" points="1025,-696 1187,-696 "/>
<path style="fill:none;stroke:black;" d="M1187,-696C1193,-696 1199,-702 1199,-708"/>
<polyline style="fill:none;stroke:black;" points="1199,-708 1199,-937 "/>
<path style="fill:none;stroke:black;" d="M1199,-937C1199,-943 1193,-949 1187,-949"/>
<polyline style="fill:none;stroke:black;" points="1187,-949 1025,-949 "/>
<path style="fill:none;stroke:black;" d="M1025,-949C1019,-949 1013,-943 1013,-937"/>
<polyline style="fill:none;stroke:black;" points="1013,-937 1013,-708 "/>
<path style="fill:none;stroke:black;" d="M1013,-708C1013,-702 1019,-696 1025,-696"/>
<text text-anchor="middle" x="1106" y="-931.9" style="font-family:Times New Roman;font-size:11.00;">ExchangesController</text>
<polyline style="fill:none;stroke:black;" points="1013,-924 1199,-924 "/>
<text text-anchor="start" x="1021" y="-907.4" style="font-family:Times New Roman;font-size:11.00;">create</text>
<text text-anchor="start" x="1021" y="-890.4" style="font-family:Times New Roman;font-size:11.00;">destroy</text>
<text text-anchor="start" x="1021" y="-873.4" style="font-family:Times New Roman;font-size:11.00;">edit</text>
<text text-anchor="start" x="1021" y="-856.4" style="font-family:Times New Roman;font-size:11.00;">index</text>
<text text-anchor="start" x="1021" y="-839.4" style="font-family:Times New Roman;font-size:11.00;">list</text>
<text text-anchor="start" x="1021" y="-822.4" style="font-family:Times New Roman;font-size:11.00;">new</text>
<text text-anchor="start" x="1021" y="-805.4" style="font-family:Times New Roman;font-size:11.00;">show</text>
<text text-anchor="start" x="1021" y="-788.4" style="font-family:Times New Roman;font-size:11.00;">update</text>
<polyline style="fill:none;stroke:black;" points="1013,-780 1199,-780 "/>
<text text-anchor="start" x="1021" y="-763.4" style="font-family:Times New Roman;font-size:11.00;">set_currencies</text>
<text text-anchor="start" x="1021" y="-746.4" style="font-family:Times New Roman;font-size:11.00;">set_exchange</text>
<polyline style="fill:none;stroke:black;" points="1013,-738 1199,-738 "/>
<text text-anchor="start" x="1021" y="-721.4" style="font-family:Times New Roman;font-size:11.00;">change_currencies_to_objects</text>
<text text-anchor="start" x="1021" y="-704.4" style="font-family:Times New Roman;font-size:11.00;">default_exchange</text>
</g>
<!-- CategoriesController -->
<g id="node4" class="node"><title>CategoriesController</title>
<polyline style="fill:none;stroke:black;" points="42,-22 193,-22 "/>
<path style="fill:none;stroke:black;" d="M193,-22C199,-22 205,-28 205,-34"/>
<polyline style="fill:none;stroke:black;" points="205,-34 205,-296 "/>
<path style="fill:none;stroke:black;" d="M205,-296C205,-302 199,-308 193,-308"/>
<polyline style="fill:none;stroke:black;" points="193,-308 42,-308 "/>
<path style="fill:none;stroke:black;" d="M42,-308C36,-308 30,-302 30,-296"/>
<polyline style="fill:none;stroke:black;" points="30,-296 30,-34 "/>
<path style="fill:none;stroke:black;" d="M30,-34C30,-28 36,-22 42,-22"/>
<text text-anchor="middle" x="117" y="-290.9" style="font-family:Times New Roman;font-size:11.00;">CategoriesController</text>
<polyline style="fill:none;stroke:black;" points="30,-283 205,-283 "/>
<text text-anchor="start" x="37.5" y="-266.4" style="font-family:Times New Roman;font-size:11.00;">create</text>
<text text-anchor="start" x="37.5" y="-249.4" style="font-family:Times New Roman;font-size:11.00;">destroy</text>
<text text-anchor="start" x="37.5" y="-232.4" style="font-family:Times New Roman;font-size:11.00;">edit</text>
<text text-anchor="start" x="37.5" y="-215.4" style="font-family:Times New Roman;font-size:11.00;">index</text>
<text text-anchor="start" x="37.5" y="-198.4" style="font-family:Times New Roman;font-size:11.00;">new</text>
<text text-anchor="start" x="37.5" y="-181.4" style="font-family:Times New Roman;font-size:11.00;">search</text>
<text text-anchor="start" x="37.5" y="-164.4" style="font-family:Times New Roman;font-size:11.00;">show</text>
<text text-anchor="start" x="37.5" y="-147.4" style="font-family:Times New Roman;font-size:11.00;">update</text>
<polyline style="fill:none;stroke:black;" points="30,-139 205,-139 "/>
<polyline style="fill:none;stroke:black;" points="30,-115 205,-115 "/>
<text text-anchor="start" x="37.5" y="-97.9" style="font-family:Times New Roman;font-size:11.00;">check_perm</text>
<text text-anchor="start" x="37.5" y="-80.9" style="font-family:Times New Roman;font-size:11.00;">empty_subcategories</text>
<text text-anchor="start" x="37.5" y="-63.9" style="font-family:Times New Roman;font-size:11.00;">format_openinig_balance</text>
<text text-anchor="start" x="37.5" y="-46.9" style="font-family:Times New Roman;font-size:11.00;">set_default_variables</text>
<text text-anchor="start" x="37.5" y="-29.9" style="font-family:Times New Roman;font-size:11.00;">subcategories_from_params</text>
</g>
<!-- CurrenciesController -->
<g id="node5" class="node"><title>CurrenciesController</title>
<polyline style="fill:none;stroke:black;" points="374,-1129 482,-1129 "/>
<path style="fill:none;stroke:black;" d="M482,-1129C488,-1129 494,-1135 494,-1141"/>
<polyline style="fill:none;stroke:black;" points="494,-1141 494,-1318 "/>
<path style="fill:none;stroke:black;" d="M494,-1318C494,-1324 488,-1330 482,-1330"/>
<polyline style="fill:none;stroke:black;" points="482,-1330 374,-1330 "/>
<path style="fill:none;stroke:black;" d="M374,-1330C368,-1330 362,-1324 362,-1318"/>
<polyline style="fill:none;stroke:black;" points="362,-1318 362,-1141 "/>
<path style="fill:none;stroke:black;" d="M362,-1141C362,-1135 368,-1129 374,-1129"/>
<text text-anchor="middle" x="428" y="-1312.9" style="font-family:Times New Roman;font-size:11.00;">CurrenciesController</text>
<polyline style="fill:none;stroke:black;" points="362,-1305 494,-1305 "/>
<text text-anchor="start" x="370" y="-1287.9" style="font-family:Times New Roman;font-size:11.00;">create</text>
<text text-anchor="start" x="370" y="-1270.9" style="font-family:Times New Roman;font-size:11.00;">destroy</text>
<text text-anchor="start" x="370" y="-1253.9" style="font-family:Times New Roman;font-size:11.00;">edit</text>
<text text-anchor="start" x="370" y="-1236.9" style="font-family:Times New Roman;font-size:11.00;">index</text>
<text text-anchor="start" x="370" y="-1219.9" style="font-family:Times New Roman;font-size:11.00;">new</text>
<text text-anchor="start" x="370" y="-1202.9" style="font-family:Times New Roman;font-size:11.00;">show</text>
<text text-anchor="start" x="370" y="-1185.9" style="font-family:Times New Roman;font-size:11.00;">update</text>
<polyline style="fill:none;stroke:black;" points="362,-1178 494,-1178 "/>
<polyline style="fill:none;stroke:black;" points="362,-1154 494,-1154 "/>
<text text-anchor="start" x="370" y="-1136.9" style="font-family:Times New Roman;font-size:11.00;">check_perm_edit</text>
</g>
<!-- CreditorsController -->
<g id="node6" class="node"><title>CreditorsController</title>
<polyline style="fill:none;stroke:black;" points="1070,-1150 1171,-1150 "/>
<path style="fill:none;stroke:black;" d="M1171,-1150C1177,-1150 1183,-1156 1183,-1162"/>
<polyline style="fill:none;stroke:black;" points="1183,-1162 1183,-1253 "/>
<path style="fill:none;stroke:black;" d="M1183,-1253C1183,-1259 1177,-1265 1171,-1265"/>
<polyline style="fill:none;stroke:black;" points="1171,-1265 1070,-1265 "/>
<path style="fill:none;stroke:black;" d="M1070,-1265C1064,-1265 1058,-1259 1058,-1253"/>
<polyline style="fill:none;stroke:black;" points="1058,-1253 1058,-1162 "/>
<path style="fill:none;stroke:black;" d="M1058,-1162C1058,-1156 1064,-1150 1070,-1150"/>
<text text-anchor="middle" x="1120" y="-1247.9" style="font-family:Times New Roman;font-size:11.00;">CreditorsController</text>
<polyline style="fill:none;stroke:black;" points="1058,-1240 1183,-1240 "/>
<text text-anchor="start" x="1065.5" y="-1223.4" style="font-family:Times New Roman;font-size:11.00;">index</text>
<text text-anchor="start" x="1065.5" y="-1206.4" style="font-family:Times New Roman;font-size:11.00;">pay</text>
<polyline style="fill:none;stroke:black;" points="1058,-1198 1183,-1198 "/>
<polyline style="fill:none;stroke:black;" points="1058,-1174 1183,-1174 "/>
</g>
<!-- ImportController -->
<g id="node7" class="node"><title>ImportController</title>
<polyline style="fill:none;stroke:black;" points="13,-579 137,-579 "/>
<path style="fill:none;stroke:black;" d="M137,-579C143,-579 149,-585 149,-591"/>
<polyline style="fill:none;stroke:black;" points="149,-591 149,-717 "/>
<path style="fill:none;stroke:black;" d="M149,-717C149,-723 143,-729 137,-729"/>
<polyline style="fill:none;stroke:black;" points="137,-729 13,-729 "/>
<path style="fill:none;stroke:black;" d="M13,-729C7,-729 1,-723 1,-717"/>
<polyline style="fill:none;stroke:black;" points="1,-717 1,-591 "/>
<path style="fill:none;stroke:black;" d="M1,-591C1,-585 7,-579 13,-579"/>
<text text-anchor="middle" x="75" y="-711.9" style="font-family:Times New Roman;font-size:11.00;">ImportController</text>
<polyline style="fill:none;stroke:black;" points="1,-704 149,-704 "/>
<text text-anchor="start" x="9" y="-687.4" style="font-family:Times New Roman;font-size:11.00;">create</text>
<text text-anchor="start" x="9" y="-670.4" style="font-family:Times New Roman;font-size:11.00;">import</text>
<text text-anchor="start" x="9" y="-653.4" style="font-family:Times New Roman;font-size:11.00;">parse_bank</text>
<text text-anchor="start" x="9" y="-636.4" style="font-family:Times New Roman;font-size:11.00;">parse_gnucash</text>
<polyline style="fill:none;stroke:black;" points="1,-628 149,-628 "/>
<polyline style="fill:none;stroke:black;" points="1,-604 149,-604 "/>
<text text-anchor="start" x="9" y="-586.9" style="font-family:Times New Roman;font-size:11.00;">render_invalid_file_info</text>
</g>
<!-- HistoryController -->
<g id="node8" class="node"><title>HistoryController</title>
<polyline style="fill:none;stroke:black;" points="298,-357 529,-357 "/>
<path style="fill:none;stroke:black;" d="M529,-357C535,-357 541,-363 541,-369"/>
<polyline style="fill:none;stroke:black;" points="541,-369 541,-579 "/>
<path style="fill:none;stroke:black;" d="M541,-579C541,-585 535,-591 529,-591"/>
<polyline style="fill:none;stroke:black;" points="529,-591 298,-591 "/>
<path style="fill:none;stroke:black;" d="M298,-591C292,-591 286,-585 286,-579"/>
<polyline style="fill:none;stroke:black;" points="286,-579 286,-369 "/>
<path style="fill:none;stroke:black;" d="M286,-369C286,-363 292,-357 298,-357"/>
<text text-anchor="middle" x="413" y="-573.9" style="font-family:Times New Roman;font-size:11.00;">HistoryController</text>
<polyline style="fill:none;stroke:black;" points="286,-566 541,-566 "/>
<polyline style="fill:none;stroke:black;" points="286,-542 541,-542 "/>
<text text-anchor="start" x="293.5" y="-524.9" style="font-family:Times New Roman;font-size:11.00;">create_empty_transfer</text>
<text text-anchor="start" x="293.5" y="-507.9" style="font-family:Times New Roman;font-size:11.00;">find_currencies_for_user</text>
<text text-anchor="start" x="293.5" y="-490.9" style="font-family:Times New Roman;font-size:11.00;">find_newest_exchanges</text>
<text text-anchor="start" x="293.5" y="-473.9" style="font-family:Times New Roman;font-size:11.00;">render_transfer_table</text>
<text text-anchor="start" x="293.5" y="-456.9" style="font-family:Times New Roman;font-size:11.00;">set_current_category</text>
<text text-anchor="start" x="293.5" y="-439.9" style="font-family:Times New Roman;font-size:11.00;">set_start_end_days</text>
<text text-anchor="start" x="293.5" y="-422.9" style="font-family:Times New Roman;font-size:11.00;">set_transfers_and_values</text>
<text text-anchor="start" x="293.5" y="-405.9" style="font-family:Times New Roman;font-size:11.00;">set_variables_for_rendering_transfer_table</text>
<text text-anchor="start" x="293.5" y="-388.9" style="font-family:Times New Roman;font-size:11.00;">show_transfer_errors</text>
<polyline style="fill:none;stroke:black;" points="286,-381 541,-381 "/>
</g>
<!-- HistoryController&#45;&gt;CategoriesController -->
<g id="edge6" class="edge"><title>HistoryController&#45;&gt;CategoriesController</title>
<path style="fill:none;stroke:black;" d="M294,-350C264,-319 233,-286 205,-257"/>
<polygon style="fill:none;stroke:black;" points="291.454,-352.404 301,-357 296.404,-347.454 291.454,-352.404"/>
</g>
<!-- HistoryController&#45;&gt;ImportController -->
<g id="edge12" class="edge"><title>HistoryController&#45;&gt;ImportController</title>
<path style="fill:none;stroke:black;" d="M277,-547C233,-570 186,-594 149,-615"/>
<polygon style="fill:none;stroke:black;" points="278.958,-549.916 286,-542 275.559,-543.797 278.958,-549.916"/>
</g>
<!-- TransfersController -->
<g id="node16" class="node"><title>TransfersController</title>
<polyline style="fill:none;stroke:black;" points="15,-1051 150,-1051 "/>
<path style="fill:none;stroke:black;" d="M150,-1051C156,-1051 162,-1057 162,-1063"/>
<polyline style="fill:none;stroke:black;" points="162,-1063 162,-1257 "/>
<path style="fill:none;stroke:black;" d="M162,-1257C162,-1263 156,-1269 150,-1269"/>
<polyline style="fill:none;stroke:black;" points="150,-1269 15,-1269 "/>
<path style="fill:none;stroke:black;" d="M15,-1269C9,-1269 3,-1263 3,-1257"/>
<polyline style="fill:none;stroke:black;" points="3,-1257 3,-1063 "/>
<path style="fill:none;stroke:black;" d="M3,-1063C3,-1057 9,-1051 15,-1051"/>
<text text-anchor="middle" x="82" y="-1251.9" style="font-family:Times New Roman;font-size:11.00;">TransfersController</text>
<polyline style="fill:none;stroke:black;" points="3,-1244 162,-1244 "/>
<text text-anchor="start" x="10.5" y="-1227.4" style="font-family:Times New Roman;font-size:11.00;">create</text>
<text text-anchor="start" x="10.5" y="-1210.4" style="font-family:Times New Roman;font-size:11.00;">destroy</text>
<text text-anchor="start" x="10.5" y="-1193.4" style="font-family:Times New Roman;font-size:11.00;">edit</text>
<text text-anchor="start" x="10.5" y="-1176.4" style="font-family:Times New Roman;font-size:11.00;">index</text>
<text text-anchor="start" x="10.5" y="-1159.4" style="font-family:Times New Roman;font-size:11.00;">quick_transfer</text>
<text text-anchor="start" x="10.5" y="-1142.4" style="font-family:Times New Roman;font-size:11.00;">search</text>
<text text-anchor="start" x="10.5" y="-1125.4" style="font-family:Times New Roman;font-size:11.00;">show</text>
<text text-anchor="start" x="10.5" y="-1108.4" style="font-family:Times New Roman;font-size:11.00;">update</text>
<polyline style="fill:none;stroke:black;" points="3,-1100 162,-1100 "/>
<text text-anchor="start" x="10.5" y="-1082.9" style="font-family:Times New Roman;font-size:11.00;">check_perm_for_transfer</text>
<polyline style="fill:none;stroke:black;" points="3,-1075 162,-1075 "/>
</g>
<!-- HistoryController&#45;&gt;TransfersController -->
<g id="edge28" class="edge"><title>HistoryController&#45;&gt;TransfersController</title>
<path style="fill:none;stroke:black;" d="M318,-599C295,-634 270,-673 251,-710 193,-821 144,-958 115,-1051"/>
<polygon style="fill:none;stroke:black;" points="320.8,-601.1 324,-591 315.2,-596.9 320.8,-601.1"/>
</g>
<!-- UsersController -->
<g id="node9" class="node"><title>UsersController</title>
<polyline style="fill:none;stroke:black;" points="1001,-1 1133,-1 "/>
<path style="fill:none;stroke:black;" d="M1133,-1C1139,-1 1145,-7 1145,-13"/>
<polyline style="fill:none;stroke:black;" points="1145,-13 1145,-207 "/>
<path style="fill:none;stroke:black;" d="M1145,-207C1145,-213 1139,-219 1133,-219"/>
<polyline style="fill:none;stroke:black;" points="1133,-219 1001,-219 "/>
<path style="fill:none;stroke:black;" d="M1001,-219C995,-219 989,-213 989,-207"/>
<polyline style="fill:none;stroke:black;" points="989,-207 989,-13 "/>
<path style="fill:none;stroke:black;" d="M989,-13C989,-7 995,-1 1001,-1"/>
<text text-anchor="middle" x="1067" y="-201.9" style="font-family:Times New Roman;font-size:11.00;">UsersController</text>
<polyline style="fill:none;stroke:black;" points="989,-194 1145,-194 "/>
<text text-anchor="start" x="997" y="-177.4" style="font-family:Times New Roman;font-size:11.00;">activate</text>
<text text-anchor="start" x="997" y="-160.4" style="font-family:Times New Roman;font-size:11.00;">create</text>
<text text-anchor="start" x="997" y="-143.4" style="font-family:Times New Roman;font-size:11.00;">destroy</text>
<text text-anchor="start" x="997" y="-126.4" style="font-family:Times New Roman;font-size:11.00;">edit</text>
<text text-anchor="start" x="997" y="-109.4" style="font-family:Times New Roman;font-size:11.00;">new</text>
<text text-anchor="start" x="997" y="-92.4" style="font-family:Times New Roman;font-size:11.00;">update</text>
<polyline style="fill:none;stroke:black;" points="989,-84 1145,-84 "/>
<polyline style="fill:none;stroke:black;" points="989,-60 1145,-60 "/>
<text text-anchor="start" x="997" y="-42.9" style="font-family:Times New Roman;font-size:11.00;">check_perm</text>
<text text-anchor="start" x="997" y="-25.9" style="font-family:Times New Roman;font-size:11.00;">prepare_arrays_for_view</text>
<text text-anchor="start" x="997" y="-8.9" style="font-family:Times New Roman;font-size:11.00;">redirect_back</text>
</g>
<!-- DebtorsController -->
<g id="node10" class="node"><title>DebtorsController</title>
<polyline style="fill:none;stroke:black;" points="713,-1199 806,-1199 "/>
<path style="fill:none;stroke:black;" d="M806,-1199C812,-1199 818,-1205 818,-1211"/>
<polyline style="fill:none;stroke:black;" points="818,-1211 818,-1302 "/>
<path style="fill:none;stroke:black;" d="M818,-1302C818,-1308 812,-1314 806,-1314"/>
<polyline style="fill:none;stroke:black;" points="806,-1314 713,-1314 "/>
<path style="fill:none;stroke:black;" d="M713,-1314C707,-1314 701,-1308 701,-1302"/>
<polyline style="fill:none;stroke:black;" points="701,-1302 701,-1211 "/>
<path style="fill:none;stroke:black;" d="M701,-1211C701,-1205 707,-1199 713,-1199"/>
<text text-anchor="middle" x="759" y="-1296.9" style="font-family:Times New Roman;font-size:11.00;">DebtorsController</text>
<polyline style="fill:none;stroke:black;" points="701,-1289 818,-1289 "/>
<text text-anchor="start" x="708.5" y="-1272.4" style="font-family:Times New Roman;font-size:11.00;">index</text>
<text text-anchor="start" x="708.5" y="-1255.4" style="font-family:Times New Roman;font-size:11.00;">remind</text>
<polyline style="fill:none;stroke:black;" points="701,-1247 818,-1247 "/>
<polyline style="fill:none;stroke:black;" points="701,-1223 818,-1223 "/>
</g>
<!-- ApplicationController -->
<g id="node11" class="node"><title>ApplicationController</title>
<polyline style="fill:none;stroke:black;" points="663,-569 786,-569 "/>
<path style="fill:none;stroke:black;" d="M786,-569C792,-569 798,-575 798,-581"/>
<polyline style="fill:none;stroke:black;" points="798,-581 798,-723 "/>
<path style="fill:none;stroke:black;" d="M798,-723C798,-729 792,-735 786,-735"/>
<polyline style="fill:none;stroke:black;" points="786,-735 663,-735 "/>
<path style="fill:none;stroke:black;" d="M663,-735C657,-735 651,-729 651,-723"/>
<polyline style="fill:none;stroke:black;" points="651,-723 651,-581 "/>
<path style="fill:none;stroke:black;" d="M651,-581C651,-575 657,-569 663,-569"/>
<text text-anchor="middle" x="724" y="-717.9" style="font-family:Times New Roman;font-size:11.00;">ApplicationController</text>
<polyline style="fill:none;stroke:black;" points="651,-710 798,-710 "/>
<polyline style="fill:none;stroke:black;" points="651,-686 798,-686 "/>
<text text-anchor="start" x="658.5" y="-668.9" style="font-family:Times New Roman;font-size:11.00;">extract_form_errors_id</text>
<text text-anchor="start" x="658.5" y="-651.9" style="font-family:Times New Roman;font-size:11.00;">extract_form_id</text>
<text text-anchor="start" x="658.5" y="-634.9" style="font-family:Times New Roman;font-size:11.00;">filter_parameters</text>
<text text-anchor="start" x="658.5" y="-617.9" style="font-family:Times New Roman;font-size:11.00;">get_period</text>
<text text-anchor="start" x="658.5" y="-600.9" style="font-family:Times New Roman;font-size:11.00;">get_period_range</text>
<polyline style="fill:none;stroke:black;" points="651,-593 798,-593 "/>
</g>
<!-- ApplicationController&#45;&gt;ReportsController -->
<g id="edge2" class="edge"><title>ApplicationController&#45;&gt;ReportsController</title>
<path style="fill:none;stroke:black;" d="M737,-559C738,-551 739,-542 740,-534"/>
<polygon style="fill:none;stroke:black;" points="733.529,-558.508 735,-569 740.393,-559.881 733.529,-558.508"/>
</g>
<!-- ApplicationController&#45;&gt;ExchangesController -->
<g id="edge4" class="edge"><title>ApplicationController&#45;&gt;ExchangesController</title>
<path style="fill:none;stroke:black;" d="M807,-689C868,-717 950,-753 1013,-781"/>
<polygon style="fill:none;stroke:black;" points="808.56,-685.863 798,-685 805.717,-692.26 808.56,-685.863"/>
</g>
<!-- ApplicationController&#45;&gt;CurrenciesController -->
<g id="edge8" class="edge"><title>ApplicationController&#45;&gt;CurrenciesController</title>
<path style="fill:none;stroke:black;" d="M676,-744C623,-849 535,-1020 480,-1129"/>
<polygon style="fill:none;stroke:black;" points="679.203,-745.441 681,-735 673.084,-742.042 679.203,-745.441"/>
</g>
<!-- ApplicationController&#45;&gt;HistoryController -->
<g id="edge14" class="edge"><title>ApplicationController&#45;&gt;HistoryController</title>
<path style="fill:none;stroke:black;" d="M642,-605C611,-587 576,-566 541,-547"/>
<polygon style="fill:none;stroke:black;" points="640.559,-608.203 651,-610 643.958,-602.084 640.559,-608.203"/>
</g>
<!-- ApplicationController&#45;&gt;UsersController -->
<g id="edge16" class="edge"><title>ApplicationController&#45;&gt;UsersController</title>
<path style="fill:none;stroke:black;" d="M806,-604C829,-588 851,-568 869,-547 949,-449 1004,-313 1035,-219"/>
<polygon style="fill:none;stroke:black;" points="803.9,-601.2 798,-610 808.1,-606.8 803.9,-601.2"/>
</g>
<!-- SessionsController -->
<g id="node12" class="node"><title>SessionsController</title>
<polyline style="fill:none;stroke:black;" points="510,-19 608,-19 "/>
<path style="fill:none;stroke:black;" d="M608,-19C614,-19 620,-25 620,-31"/>
<polyline style="fill:none;stroke:black;" points="620,-31 620,-157 "/>
<path style="fill:none;stroke:black;" d="M620,-157C620,-163 614,-169 608,-169"/>
<polyline style="fill:none;stroke:black;" points="608,-169 510,-169 "/>
<path style="fill:none;stroke:black;" d="M510,-169C504,-169 498,-163 498,-157"/>
<polyline style="fill:none;stroke:black;" points="498,-157 498,-31 "/>
<path style="fill:none;stroke:black;" d="M498,-31C498,-25 504,-19 510,-19"/>
<text text-anchor="middle" x="559" y="-151.9" style="font-family:Times New Roman;font-size:11.00;">SessionsController</text>
<polyline style="fill:none;stroke:black;" points="498,-144 620,-144 "/>
<text text-anchor="start" x="506" y="-127.4" style="font-family:Times New Roman;font-size:11.00;">create</text>
<text text-anchor="start" x="506" y="-110.4" style="font-family:Times New Roman;font-size:11.00;">default</text>
<text text-anchor="start" x="506" y="-93.4" style="font-family:Times New Roman;font-size:11.00;">destroy</text>
<text text-anchor="start" x="506" y="-76.4" style="font-family:Times New Roman;font-size:11.00;">new</text>
<polyline style="fill:none;stroke:black;" points="498,-68 620,-68 "/>
<text text-anchor="start" x="506" y="-50.9" style="font-family:Times New Roman;font-size:11.00;">note_failed_signin</text>
<polyline style="fill:none;stroke:black;" points="498,-43 620,-43 "/>
</g>
<!-- ApplicationController&#45;&gt;SessionsController -->
<g id="edge20" class="edge"><title>ApplicationController&#45;&gt;SessionsController</title>
<path style="fill:none;stroke:black;" d="M663,-560C661,-555 660,-551 658,-547 606,-420 579,-261 567,-169"/>
<polygon style="fill:none;stroke:black;" points="660.084,-561.958 668,-569 666.203,-558.559 660.084,-561.958"/>
</g>
<!-- GoalsController -->
<g id="node13" class="node"><title>GoalsController</title>
<polyline style="fill:none;stroke:black;" points="274,-719 520,-719 "/>
<path style="fill:none;stroke:black;" d="M520,-719C526,-719 532,-725 532,-731"/>
<polyline style="fill:none;stroke:black;" points="532,-731 532,-942 "/>
<path style="fill:none;stroke:black;" d="M532,-942C532,-948 526,-954 520,-954"/>
<polyline style="fill:none;stroke:black;" points="520,-954 274,-954 "/>
<path style="fill:none;stroke:black;" d="M274,-954C268,-954 262,-948 262,-942"/>
<polyline style="fill:none;stroke:black;" points="262,-942 262,-731 "/>
<path style="fill:none;stroke:black;" d="M262,-731C262,-725 268,-719 274,-719"/>
<text text-anchor="middle" x="397" y="-936.9" style="font-family:Times New Roman;font-size:11.00;">GoalsController</text>
<polyline style="fill:none;stroke:black;" points="262,-929 532,-929 "/>
<text text-anchor="start" x="270" y="-911.9" style="font-family:Times New Roman;font-size:11.00;">create</text>
<text text-anchor="start" x="270" y="-894.9" style="font-family:Times New Roman;font-size:11.00;">destroy</text>
<text text-anchor="start" x="270" y="-877.9" style="font-family:Times New Roman;font-size:11.00;">edit</text>
<text text-anchor="start" x="270" y="-860.9" style="font-family:Times New Roman;font-size:11.00;">finish</text>
<text text-anchor="start" x="270" y="-843.9" style="font-family:Times New Roman;font-size:11.00;">history_index</text>
<text text-anchor="start" x="270" y="-826.9" style="font-family:Times New Roman;font-size:11.00;">index</text>
<text text-anchor="start" x="270" y="-809.9" style="font-family:Times New Roman;font-size:11.00;">new</text>
<text text-anchor="start" x="270" y="-792.9" style="font-family:Times New Roman;font-size:11.00;">show</text>
<text text-anchor="start" x="270" y="-775.9" style="font-family:Times New Roman;font-size:11.00;">update</text>
<polyline style="fill:none;stroke:black;" points="262,-768 532,-768 "/>
<polyline style="fill:none;stroke:black;" points="262,-744 532,-744 "/>
<text text-anchor="start" x="270" y="-726.9" style="font-family:Times New Roman;font-size:11.00;">prepare_values_for_goal_type_and_currency</text>
</g>
<!-- ApplicationController&#45;&gt;GoalsController -->
<g id="edge22" class="edge"><title>ApplicationController&#45;&gt;GoalsController</title>
<path style="fill:none;stroke:black;" d="M642,-699C609,-718 570,-740 532,-761"/>
<polygon style="fill:none;stroke:black;" points="643.958,-701.916 651,-694 640.559,-695.797 643.958,-701.916"/>
</g>
<!-- AutocompleteController -->
<g id="node14" class="node"><title>AutocompleteController</title>
<polyline style="fill:none;stroke:black;" points="1059,-434 1186,-434 "/>
<path style="fill:none;stroke:black;" d="M1186,-434C1192,-434 1198,-440 1198,-446"/>
<polyline style="fill:none;stroke:black;" points="1198,-446 1198,-537 "/>
<path style="fill:none;stroke:black;" d="M1198,-537C1198,-543 1192,-549 1186,-549"/>
<polyline style="fill:none;stroke:black;" points="1186,-549 1059,-549 "/>
<path style="fill:none;stroke:black;" d="M1059,-549C1053,-549 1047,-543 1047,-537"/>
<polyline style="fill:none;stroke:black;" points="1047,-537 1047,-446 "/>
<path style="fill:none;stroke:black;" d="M1047,-446C1047,-440 1053,-434 1059,-434"/>
<text text-anchor="middle" x="1122" y="-531.9" style="font-family:Times New Roman;font-size:11.00;">AutocompleteController</text>
<polyline style="fill:none;stroke:black;" points="1047,-524 1198,-524 "/>
<text text-anchor="start" x="1054.5" y="-507.4" style="font-family:Times New Roman;font-size:11.00;">complete_transfer</text>
<text text-anchor="start" x="1054.5" y="-490.4" style="font-family:Times New Roman;font-size:11.00;">complete_transfer_item</text>
<polyline style="fill:none;stroke:black;" points="1047,-482 1198,-482 "/>
<polyline style="fill:none;stroke:black;" points="1047,-458 1198,-458 "/>
</g>
<!-- ApplicationController&#45;&gt;AutocompleteController -->
<g id="edge24" class="edge"><title>ApplicationController&#45;&gt;AutocompleteController</title>
<path style="fill:none;stroke:black;" d="M807,-615C829,-605 852,-595 874,-586 932,-562 998,-537 1047,-519"/>
<polygon style="fill:none;stroke:black;" points="805.717,-611.74 798,-619 808.56,-618.137 805.717,-611.74"/>
</g>
<!-- LoansController -->
<g id="node15" class="node"><title>LoansController</title>
<polyline style="fill:none;stroke:black;" points="632,-881 834,-881 "/>
<path style="fill:none;stroke:black;" d="M834,-881C840,-881 846,-887 846,-893"/>
<polyline style="fill:none;stroke:black;" points="846,-893 846,-967 "/>
<path style="fill:none;stroke:black;" d="M846,-967C846,-973 840,-979 834,-979"/>
<polyline style="fill:none;stroke:black;" points="834,-979 632,-979 "/>
<path style="fill:none;stroke:black;" d="M632,-979C626,-979 620,-973 620,-967"/>
<polyline style="fill:none;stroke:black;" points="620,-967 620,-893 "/>
<path style="fill:none;stroke:black;" d="M620,-893C620,-887 626,-881 632,-881"/>
<text text-anchor="middle" x="733" y="-961.9" style="font-family:Times New Roman;font-size:11.00;">LoansController</text>
<polyline style="fill:none;stroke:black;" points="620,-954 846,-954 "/>
<polyline style="fill:none;stroke:black;" points="620,-930 846,-930 "/>
<text text-anchor="start" x="628" y="-912.9" style="font-family:Times New Roman;font-size:11.00;">find_loans_with_transfers_and_saldo</text>
<polyline style="fill:none;stroke:black;" points="620,-905 846,-905 "/>
</g>
<!-- ApplicationController&#45;&gt;LoansController -->
<g id="edge26" class="edge"><title>ApplicationController&#45;&gt;LoansController</title>
<path style="fill:none;stroke:black;" d="M727,-745C728,-791 730,-844 731,-881"/>
<polygon style="fill:none;stroke:black;" points="730.5,-745 727,-735 723.5,-745 730.5,-745"/>
</g>
<!-- LoansController&#45;&gt;CreditorsController -->
<g id="edge10" class="edge"><title>LoansController&#45;&gt;CreditorsController</title>
<path style="fill:none;stroke:black;" d="M809,-985C882,-1037 990,-1115 1058,-1163"/>
<polygon style="fill:none;stroke:black;" points="811.1,-982.2 801,-979 806.9,-987.8 811.1,-982.2"/>
</g>
<!-- LoansController&#45;&gt;DebtorsController -->
<g id="edge18" class="edge"><title>LoansController&#45;&gt;DebtorsController</title>
<path style="fill:none;stroke:black;" d="M738,-989C743,-1049 749,-1139 754,-1199"/>
<polygon style="fill:none;stroke:black;" points="741.478,-988.602 737,-979 734.512,-989.299 741.478,-988.602"/>
</g>
</g>
</svg>
