<?xml version="1.0" encoding="UTF-8" standalone="no"?>
<!DOCTYPE svg PUBLIC "-//W3C//DTD SVG 1.0//EN"
 "http://www.w3.org/TR/2001/REC-SVG-20010904/DTD/svg10.dtd" [
 <!ATTLIST svg xmlns:xlink CDATA #FIXED "http://www.w3.org/1999/xlink">
]>
<!-- Generated by Graphviz version 2.18 (Wed Aug &#160;6 10:29:47 UTC 2008)
     For user: (jarek)  -->
<!-- Title: models_diagram Pages: 1 -->
<svg width="1579pt" height="1624pt"
 viewBox="0.00 0.00 1579.00 1624.00" xmlns="http://www.w3.org/2000/svg" xmlns:xlink="http://www.w3.org/1999/xlink">
<g id="graph0" class="graph" transform="scale(1 1) rotate(0) translate(4 1620)">
<title>models_diagram</title>
<polygon style="fill:white;stroke:white;" points="-4,4 -4,-1620 1575,-1620 1575,4 -4,4"/>
<!-- _diagram_info -->
<g id="node1" class="node"><title>_diagram_info</title>
<text text-anchor="start" x="394" y="-1484.4" style="font-family:Times New Roman;font-size:11.00;">Models diagram</text>
<text text-anchor="start" x="394" y="-1467.4" style="font-family:Times New Roman;font-size:11.00;">Date: Feb 08 2009 &#45; 13:43</text>
<text text-anchor="start" x="394" y="-1450.4" style="font-family:Times New Roman;font-size:11.00;">Migration version: 20090208112934</text>
<text text-anchor="start" x="394" y="-1433.4" style="font-family:Times New Roman;font-size:11.00;">Generated by RailRoad 0.5.0</text>
</g>
<!-- FlowReport -->
<g id="node2" class="node"><title>FlowReport</title>
<polyline style="fill:none;stroke:black;" points="40,-520 195,-520 "/>
<path style="fill:none;stroke:black;" d="M195,-520C201,-520 207,-526 207,-532"/>
<polyline style="fill:none;stroke:black;" points="207,-532 207,-728 "/>
<path style="fill:none;stroke:black;" d="M207,-728C207,-734 201,-740 195,-740"/>
<polyline style="fill:none;stroke:black;" points="195,-740 40,-740 "/>
<path style="fill:none;stroke:black;" d="M40,-740C34,-740 28,-734 28,-728"/>
<polyline style="fill:none;stroke:black;" points="28,-728 28,-532 "/>
<path style="fill:none;stroke:black;" d="M28,-532C28,-526 34,-520 40,-520"/>
<text text-anchor="middle" x="117" y="-722.9" style="font-family:Times New Roman;font-size:11.00;">FlowReport</text>
<polyline style="fill:none;stroke:black;" points="28,-715 207,-715 "/>
<text text-anchor="start" x="35.5" y="-697.9" style="font-family:Times New Roman;font-size:11.00;">name :string</text>
<text text-anchor="start" x="35.5" y="-680.9" style="font-family:Times New Roman;font-size:11.00;">period_type_int :integer</text>
<text text-anchor="start" x="35.5" y="-663.9" style="font-family:Times New Roman;font-size:11.00;">period_start :date</text>
<text text-anchor="start" x="35.5" y="-646.9" style="font-family:Times New Roman;font-size:11.00;">period_end :date</text>
<text text-anchor="start" x="35.5" y="-629.9" style="font-family:Times New Roman;font-size:11.00;">report_view_type_int :integer</text>
<text text-anchor="start" x="35.5" y="-612.9" style="font-family:Times New Roman;font-size:11.00;">is_predefined :boolean</text>
<text text-anchor="start" x="35.5" y="-595.9" style="font-family:Times New Roman;font-size:11.00;">created_at :datetime</text>
<text text-anchor="start" x="35.5" y="-578.9" style="font-family:Times New Roman;font-size:11.00;">updated_at :datetime</text>
<text text-anchor="start" x="35.5" y="-561.9" style="font-family:Times New Roman;font-size:11.00;">depth :integer</text>
<text text-anchor="start" x="35.5" y="-544.9" style="font-family:Times New Roman;font-size:11.00;">period_division_int :integer</text>
<text text-anchor="start" x="35.5" y="-527.9" style="font-family:Times New Roman;font-size:11.00;">temporary :boolean</text>
</g>
<!-- Money -->
<g id="node3" class="node"><title>Money</title>
<polygon style="fill:none;stroke:black;" points="1039,-1438 1039,-1488 1094,-1488 1094,-1438 1039,-1438"/>
<text text-anchor="middle" x="1066" y="-1470.9" style="font-family:Times New Roman;font-size:11.00;">Money</text>
<polyline style="fill:none;stroke:black;" points="1039,-1463 1094,-1463 "/>
<text text-anchor="middle" x="1066" y="-1445.9" style="font-family:Times New Roman;font-size:11.00;"> </text>
</g>
<!-- Goal -->
<g id="node4" class="node"><title>Goal</title>
<polyline style="fill:none;stroke:black;" points="682,-312 892,-312 "/>
<path style="fill:none;stroke:black;" d="M892,-312C898,-312 904,-318 904,-324"/>
<polyline style="fill:none;stroke:black;" points="904,-324 904,-469 "/>
<path style="fill:none;stroke:black;" d="M904,-469C904,-475 898,-481 892,-481"/>
<polyline style="fill:none;stroke:black;" points="892,-481 682,-481 "/>
<path style="fill:none;stroke:black;" d="M682,-481C676,-481 670,-475 670,-469"/>
<polyline style="fill:none;stroke:black;" points="670,-469 670,-324 "/>
<path style="fill:none;stroke:black;" d="M670,-324C670,-318 676,-312 682,-312"/>
<text text-anchor="middle" x="787" y="-463.9" style="font-family:Times New Roman;font-size:11.00;">Goal</text>
<polyline style="fill:none;stroke:black;" points="670,-456 904,-456 "/>
<text text-anchor="start" x="678" y="-439.4" style="font-family:Times New Roman;font-size:11.00;">description :string</text>
<text text-anchor="start" x="678" y="-422.4" style="font-family:Times New Roman;font-size:11.00;">include_subcategories :boolean</text>
<text text-anchor="start" x="678" y="-405.4" style="font-family:Times New Roman;font-size:11.00;">period_type_int :integer</text>
<text text-anchor="start" x="678" y="-388.4" style="font-family:Times New Roman;font-size:11.00;">goal_type_int :integer</text>
<text text-anchor="start" x="678" y="-371.4" style="font-family:Times New Roman;font-size:11.00;">goal_completion_condition_int :integer</text>
<text text-anchor="start" x="678" y="-354.4" style="font-family:Times New Roman;font-size:11.00;">value :float</text>
<text text-anchor="start" x="678" y="-337.4" style="font-family:Times New Roman;font-size:11.00;">created_at :datetime</text>
<text text-anchor="start" x="678" y="-320.4" style="font-family:Times New Roman;font-size:11.00;">updated_at :datetime</text>
</g>
<!-- RegisterMailer -->
<g id="node5" class="node"><title>RegisterMailer</title>
<polygon style="fill:none;stroke:black;" points="1159,-1137 1159,-1187 1255,-1187 1255,-1137 1159,-1137"/>
<text text-anchor="middle" x="1207" y="-1169.9" style="font-family:Times New Roman;font-size:11.00;">RegisterMailer</text>
<polyline style="fill:none;stroke:black;" points="1159,-1162 1255,-1162 "/>
<text text-anchor="middle" x="1207" y="-1144.9" style="font-family:Times New Roman;font-size:11.00;"> </text>
</g>
<!-- UserObserver -->
<g id="node6" class="node"><title>UserObserver</title>
<polygon style="fill:none;stroke:black;" points="1419,-1137 1419,-1187 1513,-1187 1513,-1137 1419,-1137"/>
<text text-anchor="middle" x="1466" y="-1169.9" style="font-family:Times New Roman;font-size:11.00;">UserObserver</text>
<polyline style="fill:none;stroke:black;" points="1419,-1162 1513,-1162 "/>
<text text-anchor="middle" x="1466" y="-1144.9" style="font-family:Times New Roman;font-size:11.00;"> </text>
</g>
<!-- ShareReport -->
<g id="node7" class="node"><title>ShareReport</title>
<polyline style="fill:none;stroke:black;" points="157,-794 312,-794 "/>
<path style="fill:none;stroke:black;" d="M312,-794C318,-794 324,-800 324,-806"/>
<polyline style="fill:none;stroke:black;" points="324,-806 324,-1002 "/>
<path style="fill:none;stroke:black;" d="M324,-1002C324,-1008 318,-1014 312,-1014"/>
<polyline style="fill:none;stroke:black;" points="312,-1014 157,-1014 "/>
<path style="fill:none;stroke:black;" d="M157,-1014C151,-1014 145,-1008 145,-1002"/>
<polyline style="fill:none;stroke:black;" points="145,-1002 145,-806 "/>
<path style="fill:none;stroke:black;" d="M145,-806C145,-800 151,-794 157,-794"/>
<text text-anchor="middle" x="234" y="-996.9" style="font-family:Times New Roman;font-size:11.00;">ShareReport</text>
<polyline style="fill:none;stroke:black;" points="145,-989 324,-989 "/>
<text text-anchor="start" x="152.5" y="-971.9" style="font-family:Times New Roman;font-size:11.00;">name :string</text>
<text text-anchor="start" x="152.5" y="-954.9" style="font-family:Times New Roman;font-size:11.00;">period_type_int :integer</text>
<text text-anchor="start" x="152.5" y="-937.9" style="font-family:Times New Roman;font-size:11.00;">period_start :date</text>
<text text-anchor="start" x="152.5" y="-920.9" style="font-family:Times New Roman;font-size:11.00;">period_end :date</text>
<text text-anchor="start" x="152.5" y="-903.9" style="font-family:Times New Roman;font-size:11.00;">report_view_type_int :integer</text>
<text text-anchor="start" x="152.5" y="-886.9" style="font-family:Times New Roman;font-size:11.00;">is_predefined :boolean</text>
<text text-anchor="start" x="152.5" y="-869.9" style="font-family:Times New Roman;font-size:11.00;">created_at :datetime</text>
<text text-anchor="start" x="152.5" y="-852.9" style="font-family:Times New Roman;font-size:11.00;">updated_at :datetime</text>
<text text-anchor="start" x="152.5" y="-835.9" style="font-family:Times New Roman;font-size:11.00;">depth :integer</text>
<text text-anchor="start" x="152.5" y="-818.9" style="font-family:Times New Roman;font-size:11.00;">period_division_int :integer</text>
<text text-anchor="start" x="152.5" y="-801.9" style="font-family:Times New Roman;font-size:11.00;">temporary :boolean</text>
</g>
<!-- MultipleCategoryReport -->
<g id="node8" class="node"><title>MultipleCategoryReport</title>
<polyline style="fill:none;stroke:black;" points="353,-794 508,-794 "/>
<path style="fill:none;stroke:black;" d="M508,-794C514,-794 520,-800 520,-806"/>
<polyline style="fill:none;stroke:black;" points="520,-806 520,-1002 "/>
<path style="fill:none;stroke:black;" d="M520,-1002C520,-1008 514,-1014 508,-1014"/>
<polyline style="fill:none;stroke:black;" points="508,-1014 353,-1014 "/>
<path style="fill:none;stroke:black;" d="M353,-1014C347,-1014 341,-1008 341,-1002"/>
<polyline style="fill:none;stroke:black;" points="341,-1002 341,-806 "/>
<path style="fill:none;stroke:black;" d="M341,-806C341,-800 347,-794 353,-794"/>
<text text-anchor="middle" x="430" y="-996.9" style="font-family:Times New Roman;font-size:11.00;">MultipleCategoryReport</text>
<polyline style="fill:none;stroke:black;" points="341,-989 520,-989 "/>
<text text-anchor="start" x="348.5" y="-971.9" style="font-family:Times New Roman;font-size:11.00;">name :string</text>
<text text-anchor="start" x="348.5" y="-954.9" style="font-family:Times New Roman;font-size:11.00;">period_type_int :integer</text>
<text text-anchor="start" x="348.5" y="-937.9" style="font-family:Times New Roman;font-size:11.00;">period_start :date</text>
<text text-anchor="start" x="348.5" y="-920.9" style="font-family:Times New Roman;font-size:11.00;">period_end :date</text>
<text text-anchor="start" x="348.5" y="-903.9" style="font-family:Times New Roman;font-size:11.00;">report_view_type_int :integer</text>
<text text-anchor="start" x="348.5" y="-886.9" style="font-family:Times New Roman;font-size:11.00;">is_predefined :boolean</text>
<text text-anchor="start" x="348.5" y="-869.9" style="font-family:Times New Roman;font-size:11.00;">created_at :datetime</text>
<text text-anchor="start" x="348.5" y="-852.9" style="font-family:Times New Roman;font-size:11.00;">updated_at :datetime</text>
<text text-anchor="start" x="348.5" y="-835.9" style="font-family:Times New Roman;font-size:11.00;">depth :integer</text>
<text text-anchor="start" x="348.5" y="-818.9" style="font-family:Times New Roman;font-size:11.00;">period_division_int :integer</text>
<text text-anchor="start" x="348.5" y="-801.9" style="font-family:Times New Roman;font-size:11.00;">temporary :boolean</text>
</g>
<!-- MultipleCategoryReport&#45;&gt;FlowReport -->
<g id="edge2" class="edge"><title>MultipleCategoryReport&#45;&gt;FlowReport</title>
<path style="fill:none;stroke:black;" d="M333,-795C333,-795 332,-794 332,-794 286,-759 262,-774 215,-740 212,-738 210,-736 207,-734"/>
<polygon style="fill:none;stroke:black;" points="330.9,-797.8 341,-801 335.1,-792.2 330.9,-797.8"/>
</g>
<!-- Category -->
<g id="node10" class="node"><title>Category</title>
<polyline style="fill:none;stroke:black;" points="485,-554 621,-554 "/>
<path style="fill:none;stroke:black;" d="M621,-554C627,-554 633,-560 633,-566"/>
<polyline style="fill:none;stroke:black;" points="633,-566 633,-694 "/>
<path style="fill:none;stroke:black;" d="M633,-694C633,-700 627,-706 621,-706"/>
<polyline style="fill:none;stroke:black;" points="621,-706 485,-706 "/>
<path style="fill:none;stroke:black;" d="M485,-706C479,-706 473,-700 473,-694"/>
<polyline style="fill:none;stroke:black;" points="473,-694 473,-566 "/>
<path style="fill:none;stroke:black;" d="M473,-566C473,-560 479,-554 485,-554"/>
<text text-anchor="middle" x="553" y="-688.9" style="font-family:Times New Roman;font-size:11.00;">Category</text>
<polyline style="fill:none;stroke:black;" points="473,-681 633,-681 "/>
<text text-anchor="start" x="481" y="-663.9" style="font-family:Times New Roman;font-size:11.00;">name :string</text>
<text text-anchor="start" x="481" y="-646.9" style="font-family:Times New Roman;font-size:11.00;">description :string</text>
<text text-anchor="start" x="481" y="-629.9" style="font-family:Times New Roman;font-size:11.00;">category_type_int :integer</text>
<text text-anchor="start" x="481" y="-612.9" style="font-family:Times New Roman;font-size:11.00;">lft :integer</text>
<text text-anchor="start" x="481" y="-595.9" style="font-family:Times New Roman;font-size:11.00;">rgt :integer</text>
<text text-anchor="start" x="481" y="-578.9" style="font-family:Times New Roman;font-size:11.00;">import_guid :string</text>
<text text-anchor="start" x="481" y="-561.9" style="font-family:Times New Roman;font-size:11.00;">imported :boolean</text>
</g>
<!-- MultipleCategoryReport&#45;&gt;Category -->
<g id="edge10" class="edge"><title>MultipleCategoryReport&#45;&gt;Category</title>
<path style="fill:none;stroke:black;" d="M483,-785C494,-761 505,-737 515,-715"/>
<polygon style="fill:black;stroke:black;" points="483.061,-784.862 474.888,-792.172 481.031,-789.431 479,-794 479,-794 479,-794 481.031,-789.431 483.112,-795.828 483.061,-784.862 483.061,-784.862"/>
<polygon style="fill:black;stroke:black;" points="514.939,-715.138 523.112,-707.828 516.969,-710.569 519,-706 519,-706 519,-706 516.969,-710.569 514.888,-704.172 514.939,-715.138 514.939,-715.138"/>
</g>
<!-- ValueReport -->
<g id="node11" class="node"><title>ValueReport</title>
<polyline style="fill:none;stroke:black;" points="236,-520 391,-520 "/>
<path style="fill:none;stroke:black;" d="M391,-520C397,-520 403,-526 403,-532"/>
<polyline style="fill:none;stroke:black;" points="403,-532 403,-728 "/>
<path style="fill:none;stroke:black;" d="M403,-728C403,-734 397,-740 391,-740"/>
<polyline style="fill:none;stroke:black;" points="391,-740 236,-740 "/>
<path style="fill:none;stroke:black;" d="M236,-740C230,-740 224,-734 224,-728"/>
<polyline style="fill:none;stroke:black;" points="224,-728 224,-532 "/>
<path style="fill:none;stroke:black;" d="M224,-532C224,-526 230,-520 236,-520"/>
<text text-anchor="middle" x="313" y="-722.9" style="font-family:Times New Roman;font-size:11.00;">ValueReport</text>
<polyline style="fill:none;stroke:black;" points="224,-715 403,-715 "/>
<text text-anchor="start" x="231.5" y="-697.9" style="font-family:Times New Roman;font-size:11.00;">name :string</text>
<text text-anchor="start" x="231.5" y="-680.9" style="font-family:Times New Roman;font-size:11.00;">period_type_int :integer</text>
<text text-anchor="start" x="231.5" y="-663.9" style="font-family:Times New Roman;font-size:11.00;">period_start :date</text>
<text text-anchor="start" x="231.5" y="-646.9" style="font-family:Times New Roman;font-size:11.00;">period_end :date</text>
<text text-anchor="start" x="231.5" y="-629.9" style="font-family:Times New Roman;font-size:11.00;">report_view_type_int :integer</text>
<text text-anchor="start" x="231.5" y="-612.9" style="font-family:Times New Roman;font-size:11.00;">is_predefined :boolean</text>
<text text-anchor="start" x="231.5" y="-595.9" style="font-family:Times New Roman;font-size:11.00;">created_at :datetime</text>
<text text-anchor="start" x="231.5" y="-578.9" style="font-family:Times New Roman;font-size:11.00;">updated_at :datetime</text>
<text text-anchor="start" x="231.5" y="-561.9" style="font-family:Times New Roman;font-size:11.00;">depth :integer</text>
<text text-anchor="start" x="231.5" y="-544.9" style="font-family:Times New Roman;font-size:11.00;">period_division_int :integer</text>
<text text-anchor="start" x="231.5" y="-527.9" style="font-family:Times New Roman;font-size:11.00;">temporary :boolean</text>
</g>
<!-- MultipleCategoryReport&#45;&gt;ValueReport -->
<g id="edge26" class="edge"><title>MultipleCategoryReport&#45;&gt;ValueReport</title>
<path style="fill:none;stroke:black;" d="M379,-785C372,-770 366,-755 360,-740"/>
<polygon style="fill:none;stroke:black;" points="375.74,-786.283 383,-794 382.137,-783.44 375.74,-786.283"/>
</g>
<!-- CategoryReportOption -->
<g id="node16" class="node"><title>CategoryReportOption</title>
<polyline style="fill:none;stroke:black;" points="286,-355 424,-355 "/>
<path style="fill:none;stroke:black;" d="M424,-355C430,-355 436,-361 436,-367"/>
<polyline style="fill:none;stroke:black;" points="436,-367 436,-427 "/>
<path style="fill:none;stroke:black;" d="M436,-427C436,-433 430,-439 424,-439"/>
<polyline style="fill:none;stroke:black;" points="424,-439 286,-439 "/>
<path style="fill:none;stroke:black;" d="M286,-439C280,-439 274,-433 274,-427"/>
<polyline style="fill:none;stroke:black;" points="274,-427 274,-367 "/>
<path style="fill:none;stroke:black;" d="M274,-367C274,-361 280,-355 286,-355"/>
<text text-anchor="middle" x="355" y="-421.9" style="font-family:Times New Roman;font-size:11.00;">CategoryReportOption</text>
<polyline style="fill:none;stroke:black;" points="274,-414 436,-414 "/>
<text text-anchor="start" x="282" y="-396.9" style="font-family:Times New Roman;font-size:11.00;">inclusion_type_int :integer</text>
<text text-anchor="start" x="282" y="-379.9" style="font-family:Times New Roman;font-size:11.00;">created_at :datetime</text>
<text text-anchor="start" x="282" y="-362.9" style="font-family:Times New Roman;font-size:11.00;">updated_at :datetime</text>
</g>
<!-- MultipleCategoryReport&#45;&gt;CategoryReportOption -->
<g id="edge12" class="edge"><title>MultipleCategoryReport&#45;&gt;CategoryReportOption</title>
<path style="fill:none;stroke:black;" d="M436,-784C437,-707 432,-606 411,-520 405,-495 394,-468 383,-446"/>
<polygon style="fill:black;stroke:black;" points="436,-784 431.5,-794 436,-789 436,-794 436,-794 436,-794 436,-789 440.5,-794 436,-784 436,-784"/>
<ellipse style="fill:black;stroke:black;" cx="380.985" cy="-442.473" rx="4.00002" ry="4.00002"/>
</g>
<!-- TransferItem -->
<g id="node9" class="node"><title>TransferItem</title>
<polyline style="fill:none;stroke:black;" points="447,-17 545,-17 "/>
<path style="fill:none;stroke:black;" d="M545,-17C551,-17 557,-23 557,-29"/>
<polyline style="fill:none;stroke:black;" points="557,-29 557,-89 "/>
<path style="fill:none;stroke:black;" d="M557,-89C557,-95 551,-101 545,-101"/>
<polyline style="fill:none;stroke:black;" points="545,-101 447,-101 "/>
<path style="fill:none;stroke:black;" d="M447,-101C441,-101 435,-95 435,-89"/>
<polyline style="fill:none;stroke:black;" points="435,-89 435,-29 "/>
<path style="fill:none;stroke:black;" d="M435,-29C435,-23 441,-17 447,-17"/>
<text text-anchor="middle" x="496" y="-83.9" style="font-family:Times New Roman;font-size:11.00;">TransferItem</text>
<polyline style="fill:none;stroke:black;" points="435,-76 557,-76 "/>
<text text-anchor="start" x="443" y="-58.9" style="font-family:Times New Roman;font-size:11.00;">description :text</text>
<text text-anchor="start" x="443" y="-41.9" style="font-family:Times New Roman;font-size:11.00;">value :decimal</text>
<text text-anchor="start" x="443" y="-24.9" style="font-family:Times New Roman;font-size:11.00;">import_guid :string</text>
</g>
<!-- Category&#45;&gt;Goal -->
<g id="edge20" class="edge"><title>Category&#45;&gt;Goal</title>
<path style="fill:none;stroke:black;" d="M637,-547C656,-528 677,-507 697,-487"/>
<polygon style="fill:black;stroke:black;" points="637.071,-546.929 626.818,-550.818 633.536,-550.464 630,-554 630,-554 630,-554 633.536,-550.464 633.182,-557.182 637.071,-546.929 637.071,-546.929"/>
<ellipse style="fill:black;stroke:black;" cx="700.172" cy="-483.828" rx="4.00002" ry="4.00002"/>
</g>
<!-- Category&#45;&gt;TransferItem -->
<g id="edge16" class="edge"><title>Category&#45;&gt;TransferItem</title>
<path style="fill:none;stroke:black;" d="M505,-545C496,-524 488,-503 483,-482 453,-350 474,-189 487,-109"/>
<polygon style="fill:black;stroke:black;" points="504.939,-544.862 504.888,-555.828 506.969,-549.431 509,-554 509,-554 509,-554 506.969,-549.431 513.112,-552.172 504.939,-544.862 504.939,-544.862"/>
<ellipse style="fill:black;stroke:black;" cx="487.504" cy="-104.969" rx="4.00001" ry="4.00001"/>
</g>
<!-- Currency -->
<g id="node12" class="node"><title>Currency</title>
<polyline style="fill:none;stroke:black;" points="823,-172 925,-172 "/>
<path style="fill:none;stroke:black;" d="M925,-172C931,-172 937,-178 937,-184"/>
<polyline style="fill:none;stroke:black;" points="937,-184 937,-261 "/>
<path style="fill:none;stroke:black;" d="M937,-261C937,-267 931,-273 925,-273"/>
<polyline style="fill:none;stroke:black;" points="925,-273 823,-273 "/>
<path style="fill:none;stroke:black;" d="M823,-273C817,-273 811,-267 811,-261"/>
<polyline style="fill:none;stroke:black;" points="811,-261 811,-184 "/>
<path style="fill:none;stroke:black;" d="M811,-184C811,-178 817,-172 823,-172"/>
<text text-anchor="middle" x="874" y="-255.9" style="font-family:Times New Roman;font-size:11.00;">Currency</text>
<polyline style="fill:none;stroke:black;" points="811,-248 937,-248 "/>
<text text-anchor="start" x="819" y="-231.4" style="font-family:Times New Roman;font-size:11.00;">symbol :string</text>
<text text-anchor="start" x="819" y="-214.4" style="font-family:Times New Roman;font-size:11.00;">long_symbol :string</text>
<text text-anchor="start" x="819" y="-197.4" style="font-family:Times New Roman;font-size:11.00;">name :string</text>
<text text-anchor="start" x="819" y="-180.4" style="font-family:Times New Roman;font-size:11.00;">long_name :string</text>
</g>
<!-- Category&#45;&gt;Currency -->
<g id="edge24" class="edge"><title>Category&#45;&gt;Currency</title>
<path style="fill:none;stroke:black;" d="M597,-545C607,-524 616,-503 623,-482 649,-408 612,-371 661,-312 696,-270 755,-247 801,-235"/>
<polygon style="fill:black;stroke:black;" points="597.061,-544.862 588.888,-552.172 595.031,-549.431 593,-554 593,-554 593,-554 595.031,-549.431 597.112,-555.828 597.061,-544.862 597.061,-544.862"/>
<polygon style="fill:black;stroke:black;" points="801.194,-234.961 811.883,-237.413 806.097,-233.981 811,-233 811,-233 811,-233 806.097,-233.981 810.117,-228.587 801.194,-234.961 801.194,-234.961"/>
</g>
<!-- Category&#45;&gt;CategoryReportOption -->
<g id="edge22" class="edge"><title>Category&#45;&gt;CategoryReportOption</title>
<path style="fill:none;stroke:black;" d="M481,-546C452,-513 421,-475 396,-445"/>
<polygon style="fill:black;stroke:black;" points="481.415,-546.474 484.613,-556.963 484.707,-550.237 488,-554 488,-554 488,-554 484.707,-550.237 491.387,-551.037 481.415,-546.474 481.415,-546.474"/>
<ellipse style="fill:black;stroke:black;" cx="393.561" cy="-442.073" rx="4.00002" ry="4.00002"/>
</g>
<!-- Transfer -->
<g id="node17" class="node"><title>Transfer</title>
<polyline style="fill:none;stroke:black;" points="504,-355 602,-355 "/>
<path style="fill:none;stroke:black;" d="M602,-355C608,-355 614,-361 614,-367"/>
<polyline style="fill:none;stroke:black;" points="614,-367 614,-427 "/>
<path style="fill:none;stroke:black;" d="M614,-427C614,-433 608,-439 602,-439"/>
<polyline style="fill:none;stroke:black;" points="602,-439 504,-439 "/>
<path style="fill:none;stroke:black;" d="M504,-439C498,-439 492,-433 492,-427"/>
<polyline style="fill:none;stroke:black;" points="492,-427 492,-367 "/>
<path style="fill:none;stroke:black;" d="M492,-367C492,-361 498,-355 504,-355"/>
<text text-anchor="middle" x="553" y="-421.9" style="font-family:Times New Roman;font-size:11.00;">Transfer</text>
<polyline style="fill:none;stroke:black;" points="492,-414 614,-414 "/>
<text text-anchor="start" x="500" y="-396.9" style="font-family:Times New Roman;font-size:11.00;">description :text</text>
<text text-anchor="start" x="500" y="-379.9" style="font-family:Times New Roman;font-size:11.00;">day :date</text>
<text text-anchor="start" x="500" y="-362.9" style="font-family:Times New Roman;font-size:11.00;">import_guid :string</text>
</g>
<!-- Category&#45;&gt;Transfer -->
<g id="edge18" class="edge"><title>Category&#45;&gt;Transfer</title>
<path style="fill:none;stroke:black;" d="M553,-544C553,-512 553,-477 553,-449"/>
<polygon style="fill:black;stroke:black;" points="553,-544 548.5,-554 553,-549 553,-554 553,-554 553,-554 553,-549 557.5,-554 553,-544 553,-544"/>
<polygon style="fill:black;stroke:black;" points="553,-449 557.5,-439 553,-444 553,-439 553,-439 553,-439 553,-444 548.5,-439 553,-449 553,-449"/>
</g>
<!-- Currency&#45;&gt;TransferItem -->
<g id="edge28" class="edge"><title>Currency&#45;&gt;TransferItem</title>
<path style="fill:none;stroke:black;" d="M802,-192C733,-162 632,-118 565,-89"/>
<polygon style="fill:black;stroke:black;" points="801.862,-191.939 809.172,-200.112 806.431,-193.969 811,-196 811,-196 811,-196 806.431,-193.969 812.828,-191.888 801.862,-191.939 801.862,-191.939"/>
<ellipse style="fill:black;stroke:black;" cx="560.745" cy="-87.4045" rx="4.00001" ry="4.00001"/>
</g>
<!-- Exchange -->
<g id="node15" class="node"><title>Exchange</title>
<polyline style="fill:none;stroke:black;" points="980,-0 1085,-0 "/>
<path style="fill:none;stroke:black;" d="M1085,-0C1091,-0 1097,-6 1097,-12"/>
<polyline style="fill:none;stroke:black;" points="1097,-12 1097,-106 "/>
<path style="fill:none;stroke:black;" d="M1097,-106C1097,-112 1091,-118 1085,-118"/>
<polyline style="fill:none;stroke:black;" points="1085,-118 980,-118 "/>
<path style="fill:none;stroke:black;" d="M980,-118C974,-118 968,-112 968,-106"/>
<polyline style="fill:none;stroke:black;" points="968,-106 968,-12 "/>
<path style="fill:none;stroke:black;" d="M968,-12C968,-6 974,-0 980,-0"/>
<text text-anchor="middle" x="1032" y="-100.9" style="font-family:Times New Roman;font-size:11.00;">Exchange</text>
<polyline style="fill:none;stroke:black;" points="968,-93 1097,-93 "/>
<text text-anchor="start" x="975.5" y="-75.9" style="font-family:Times New Roman;font-size:11.00;">currency_a :decimal</text>
<text text-anchor="start" x="975.5" y="-58.9" style="font-family:Times New Roman;font-size:11.00;">currency_b :decimal</text>
<text text-anchor="start" x="975.5" y="-41.9" style="font-family:Times New Roman;font-size:11.00;">left_to_right :float</text>
<text text-anchor="start" x="975.5" y="-24.9" style="font-family:Times New Roman;font-size:11.00;">right_to_left :float</text>
<text text-anchor="start" x="975.5" y="-7.9" style="font-family:Times New Roman;font-size:11.00;">day :date</text>
</g>
<!-- Currency&#45;&gt;Exchange -->
<g id="edge30" class="edge"><title>Currency&#45;&gt;Exchange</title>
<path style="fill:none;stroke:black;" d="M867,-162C868,-152 871,-143 875,-136 894,-106 928,-87 960,-76"/>
<polygon style="fill:black;stroke:black;" points="866.995,-162.05 861.522,-171.552 866.498,-167.025 866,-172 866,-172 866,-172 866.498,-167.025 870.478,-172.448 866.995,-162.05 866.995,-162.05"/>
<ellipse style="fill:black;stroke:black;" cx="964.255" cy="-74.4045" rx="4.00001" ry="4.00001"/>
<text text-anchor="middle" x="917" y="-140.9" style="font-family:Times New Roman;font-size:11.00;">left_exchanges</text>
</g>
<!-- Currency&#45;&gt;Exchange -->
<g id="edge32" class="edge"><title>Currency&#45;&gt;Exchange</title>
<path style="fill:none;stroke:black;" d="M944,-167C949,-163 954,-159 958,-154 967,-145 976,-135 984,-125"/>
<polygon style="fill:black;stroke:black;" points="944.071,-166.929 933.818,-170.818 940.536,-170.464 937,-174 937,-174 937,-174 940.536,-170.464 940.182,-177.182 944.071,-166.929 944.071,-166.929"/>
<ellipse style="fill:black;stroke:black;" cx="986.675" cy="-121.255" rx="4.00002" ry="4.00002"/>
<text text-anchor="middle" x="1021" y="-140.9" style="font-family:Times New Roman;font-size:11.00;">right_exchanges</text>
</g>
<!-- Report -->
<g id="node13" class="node"><title>Report</title>
<polyline style="fill:none;stroke:black;" points="353,-1052 508,-1052 "/>
<path style="fill:none;stroke:black;" d="M508,-1052C514,-1052 520,-1058 520,-1064"/>
<polyline style="fill:none;stroke:black;" points="520,-1064 520,-1260 "/>
<path style="fill:none;stroke:black;" d="M520,-1260C520,-1266 514,-1272 508,-1272"/>
<polyline style="fill:none;stroke:black;" points="508,-1272 353,-1272 "/>
<path style="fill:none;stroke:black;" d="M353,-1272C347,-1272 341,-1266 341,-1260"/>
<polyline style="fill:none;stroke:black;" points="341,-1260 341,-1064 "/>
<path style="fill:none;stroke:black;" d="M341,-1064C341,-1058 347,-1052 353,-1052"/>
<text text-anchor="middle" x="430" y="-1254.9" style="font-family:Times New Roman;font-size:11.00;">Report</text>
<polyline style="fill:none;stroke:black;" points="341,-1247 520,-1247 "/>
<text text-anchor="start" x="348.5" y="-1229.9" style="font-family:Times New Roman;font-size:11.00;">name :string</text>
<text text-anchor="start" x="348.5" y="-1212.9" style="font-family:Times New Roman;font-size:11.00;">period_type_int :integer</text>
<text text-anchor="start" x="348.5" y="-1195.9" style="font-family:Times New Roman;font-size:11.00;">period_start :date</text>
<text text-anchor="start" x="348.5" y="-1178.9" style="font-family:Times New Roman;font-size:11.00;">period_end :date</text>
<text text-anchor="start" x="348.5" y="-1161.9" style="font-family:Times New Roman;font-size:11.00;">report_view_type_int :integer</text>
<text text-anchor="start" x="348.5" y="-1144.9" style="font-family:Times New Roman;font-size:11.00;">is_predefined :boolean</text>
<text text-anchor="start" x="348.5" y="-1127.9" style="font-family:Times New Roman;font-size:11.00;">created_at :datetime</text>
<text text-anchor="start" x="348.5" y="-1110.9" style="font-family:Times New Roman;font-size:11.00;">updated_at :datetime</text>
<text text-anchor="start" x="348.5" y="-1093.9" style="font-family:Times New Roman;font-size:11.00;">depth :integer</text>
<text text-anchor="start" x="348.5" y="-1076.9" style="font-family:Times New Roman;font-size:11.00;">period_division_int :integer</text>
<text text-anchor="start" x="348.5" y="-1059.9" style="font-family:Times New Roman;font-size:11.00;">temporary :boolean</text>
</g>
<!-- Report&#45;&gt;ShareReport -->
<g id="edge8" class="edge"><title>Report&#45;&gt;ShareReport</title>
<path style="fill:none;stroke:black;" d="M340,-1044C333,-1034 325,-1024 318,-1014"/>
<polygon style="fill:none;stroke:black;" points="337.2,-1046.1 346,-1052 342.8,-1041.9 337.2,-1046.1"/>
</g>
<!-- Report&#45;&gt;MultipleCategoryReport -->
<g id="edge14" class="edge"><title>Report&#45;&gt;MultipleCategoryReport</title>
<path style="fill:none;stroke:black;" d="M430,-1042C430,-1033 430,-1023 430,-1014"/>
<polygon style="fill:none;stroke:black;" points="426.5,-1042 430,-1052 433.5,-1042 426.5,-1042"/>
</g>
<!-- UserMailer -->
<g id="node14" class="node"><title>UserMailer</title>
<polygon style="fill:none;stroke:black;" points="1273,-1137 1273,-1187 1350,-1187 1350,-1137 1273,-1137"/>
<text text-anchor="middle" x="1311" y="-1169.9" style="font-family:Times New Roman;font-size:11.00;">UserMailer</text>
<polyline style="fill:none;stroke:black;" points="1273,-1162 1350,-1162 "/>
<text text-anchor="middle" x="1311" y="-1144.9" style="font-family:Times New Roman;font-size:11.00;"> </text>
</g>
<!-- Transfer&#45;&gt;TransferItem -->
<g id="edge36" class="edge"><title>Transfer&#45;&gt;TransferItem</title>
<path style="fill:none;stroke:black;" d="M544,-345C533,-281 515,-173 504,-109"/>
<polygon style="fill:black;stroke:black;" points="544.039,-345.194 541.587,-355.883 545.019,-350.097 546,-355 546,-355 546,-355 545.019,-350.097 550.413,-354.117 544.039,-345.194 544.039,-345.194"/>
<ellipse style="fill:black;stroke:black;" cx="503.496" cy="-104.969" rx="4.00001" ry="4.00001"/>
</g>
<!-- Transfer&#45;&gt;Currency -->
<g id="edge38" class="edge"><title>Transfer&#45;&gt;Currency</title>
<path style="fill:none;stroke:black;" d="M579,-346C592,-327 609,-306 628,-292 680,-255 749,-238 801,-230"/>
<polygon style="fill:black;stroke:black;" points="578.856,-346.258 570.066,-352.815 576.428,-350.629 574,-355 574,-355 574,-355 576.428,-350.629 577.934,-357.185 578.856,-346.258 578.856,-346.258"/>
<polygon style="fill:black;stroke:black;" points="801.05,-229.995 811.448,-233.478 806.025,-229.498 811,-229 811,-229 811,-229 806.025,-229.498 810.552,-224.522 801.05,-229.995 801.05,-229.995"/>
</g>
<!-- User -->
<g id="node18" class="node"><title>User</title>
<polyline style="fill:none;stroke:black;" points="630,-1310 945,-1310 "/>
<path style="fill:none;stroke:black;" d="M945,-1310C951,-1310 957,-1316 957,-1322"/>
<polyline style="fill:none;stroke:black;" points="957,-1322 957,-1603 "/>
<path style="fill:none;stroke:black;" d="M957,-1603C957,-1609 951,-1615 945,-1615"/>
<polyline style="fill:none;stroke:black;" points="945,-1615 630,-1615 "/>
<path style="fill:none;stroke:black;" d="M630,-1615C624,-1615 618,-1609 618,-1603"/>
<polyline style="fill:none;stroke:black;" points="618,-1603 618,-1322 "/>
<path style="fill:none;stroke:black;" d="M618,-1322C618,-1316 624,-1310 630,-1310"/>
<text text-anchor="middle" x="787" y="-1597.9" style="font-family:Times New Roman;font-size:11.00;">User</text>
<polyline style="fill:none;stroke:black;" points="618,-1590 957,-1590 "/>
<text text-anchor="start" x="625.5" y="-1573.4" style="font-family:Times New Roman;font-size:11.00;">login :string</text>
<text text-anchor="start" x="625.5" y="-1556.4" style="font-family:Times New Roman;font-size:11.00;">name :string</text>
<text text-anchor="start" x="625.5" y="-1539.4" style="font-family:Times New Roman;font-size:11.00;">email :string</text>
<text text-anchor="start" x="625.5" y="-1522.4" style="font-family:Times New Roman;font-size:11.00;">crypted_password :string</text>
<text text-anchor="start" x="625.5" y="-1505.4" style="font-family:Times New Roman;font-size:11.00;">salt :string</text>
<text text-anchor="start" x="625.5" y="-1488.4" style="font-family:Times New Roman;font-size:11.00;">created_at :datetime</text>
<text text-anchor="start" x="625.5" y="-1471.4" style="font-family:Times New Roman;font-size:11.00;">updated_at :datetime</text>
<text text-anchor="start" x="625.5" y="-1454.4" style="font-family:Times New Roman;font-size:11.00;">remember_token :string</text>
<text text-anchor="start" x="625.5" y="-1437.4" style="font-family:Times New Roman;font-size:11.00;">remember_token_expires_at :datetime</text>
<text text-anchor="start" x="625.5" y="-1420.4" style="font-family:Times New Roman;font-size:11.00;">activation_code :string</text>
<text text-anchor="start" x="625.5" y="-1403.4" style="font-family:Times New Roman;font-size:11.00;">activated_at :datetime</text>
<text text-anchor="start" x="625.5" y="-1386.4" style="font-family:Times New Roman;font-size:11.00;">transaction_amount_limit_type_int :integer</text>
<text text-anchor="start" x="625.5" y="-1369.4" style="font-family:Times New Roman;font-size:11.00;">transaction_amount_limit_value :integer</text>
<text text-anchor="start" x="625.5" y="-1352.4" style="font-family:Times New Roman;font-size:11.00;">include_transactions_from_subcategories :boolean</text>
<text text-anchor="start" x="625.5" y="-1335.4" style="font-family:Times New Roman;font-size:11.00;">multi_currency_balance_calculating_algorithm_int :integer</text>
<text text-anchor="start" x="625.5" y="-1318.4" style="font-family:Times New Roman;font-size:11.00;">invert_saldo_for_income :boolean</text>
</g>
<!-- User&#45;&gt;Goal -->
<g id="edge50" class="edge"><title>User&#45;&gt;Goal</title>
<path style="fill:none;stroke:black;" d="M787,-1300C787,-1255 787,-1207 787,-1162 787,-1162 787,-1162 787,-630 787,-585 787,-533 787,-491"/>
<polygon style="fill:black;stroke:black;" points="787,-1300 782.5,-1310 787,-1305 787,-1310 787,-1310 787,-1310 787,-1305 791.5,-1310 787,-1300 787,-1300"/>
<polygon style="fill:black;stroke:black;" points="787,-491 791.5,-481 787,-486 787,-481 787,-481 787,-481 787,-486 782.5,-481 787,-491 787,-491"/>
</g>
<!-- User&#45;&gt;TransferItem -->
<g id="edge44" class="edge"><title>User&#45;&gt;TransferItem</title>
<path style="fill:none;stroke:black;" d="M609,-1310C348,-1201 0,-1437 0,-1162 0,-1162 0,-1162 0,-223 0,-134 287,-85 425,-67"/>
<polygon style="fill:black;stroke:black;" points="608.862,-1309.94 616.172,-1318.11 613.431,-1311.97 618,-1314 618,-1314 618,-1314 613.431,-1311.97 619.828,-1309.89 608.862,-1309.94 608.862,-1309.94"/>
<polygon style="fill:black;stroke:black;" points="425.05,-66.9951 435.448,-70.4777 430.025,-66.4976 435,-66 435,-66 435,-66 430.025,-66.4976 434.552,-61.5223 425.05,-66.9951 425.05,-66.9951"/>
</g>
<!-- User&#45;&gt;Category -->
<g id="edge40" class="edge"><title>User&#45;&gt;Category</title>
<path style="fill:none;stroke:black;" d="M724,-1300C723,-1298 722,-1295 721,-1292 656,-1087 599,-841 571,-714"/>
<polygon style="fill:black;stroke:black;" points="724.126,-1300.42 722.69,-1311.29 725.563,-1305.21 727,-1310 727,-1310 727,-1310 725.563,-1305.21 731.31,-1308.71 724.126,-1300.42 724.126,-1300.42"/>
<ellipse style="fill:black;stroke:black;" cx="569.97" cy="-709.881" rx="4.00001" ry="4.00001"/>
</g>
<!-- User&#45;&gt;Currency -->
<g id="edge54" class="edge"><title>User&#45;&gt;Currency</title>
<path style="fill:none;stroke:black;" d="M896,-1301C917,-1257 932,-1210 932,-1162 932,-1162 932,-1162 932,-397 932,-356 918,-313 903,-280"/>
<polygon style="fill:black;stroke:black;" points="896.061,-1300.86 887.888,-1308.17 894.031,-1305.43 892,-1310 892,-1310 892,-1310 894.031,-1305.43 896.112,-1311.83 896.061,-1300.86 896.061,-1300.86"/>
<ellipse style="fill:black;stroke:black;" cx="901.576" cy="-276.677" rx="4.00002" ry="4.00002"/>
</g>
<!-- User&#45;&gt;Currency -->
<g id="edge56" class="edge"><title>User&#45;&gt;Currency</title>
<path style="fill:none;stroke:black;" d="M928,-1301C952,-1258 970,-1211 970,-1162 970,-1162 970,-1162 970,-397 970,-357 965,-346 946,-312 940,-301 933,-290 926,-280"/>
<polygon style="fill:black;stroke:black;" points="927.856,-1301.26 919.066,-1307.81 925.428,-1305.63 923,-1310 923,-1310 923,-1310 925.428,-1305.63 926.934,-1312.19 927.856,-1301.26 927.856,-1301.26"/>
<ellipse style="fill:black;stroke:black;" cx="923.325" cy="-276.255" rx="4.00002" ry="4.00002"/>
<text text-anchor="middle" x="1020" y="-762.9" style="font-family:Times New Roman;font-size:11.00;">visible_currencies</text>
</g>
<!-- User&#45;&gt;Report -->
<g id="edge52" class="edge"><title>User&#45;&gt;Report</title>
<path style="fill:none;stroke:black;" d="M610,-1311C610,-1311 609,-1310 609,-1310 583,-1288 554,-1263 527,-1241"/>
<polygon style="fill:black;stroke:black;" points="610.474,-1311.41 615.037,-1321.39 614.237,-1314.71 618,-1318 618,-1318 618,-1318 614.237,-1314.71 620.963,-1314.61 610.474,-1311.41 610.474,-1311.41"/>
<ellipse style="fill:black;stroke:black;" cx="523.255" cy="-1238.32" rx="4.00002" ry="4.00002"/>
</g>
<!-- User&#45;&gt;Exchange -->
<g id="edge42" class="edge"><title>User&#45;&gt;Exchange</title>
<path style="fill:none;stroke:black;" d="M965,-1362C1029,-1311 1085,-1244 1085,-1162 1085,-1162 1085,-1162 1085,-223 1086,-183 1083,-173 1070,-136 1069,-133 1068,-129 1067,-126"/>
<polygon style="fill:black;stroke:black;" points="965,-1362 954.3,-1364.4 961,-1365 957,-1368 957,-1368 957,-1368 961,-1365 959.7,-1371.6 965,-1362 965,-1362"/>
<ellipse style="fill:black;stroke:black;" cx="1065.4" cy="-121.745" rx="4.00001" ry="4.00001"/>
</g>
<!-- User&#45;&gt;Exchange -->
<g id="edge46" class="edge"><title>User&#45;&gt;Exchange</title>
<path style="fill:none;stroke:black;" d="M966,-1349C1027,-1311 1082,-1275 1085,-1272 1119,-1231 1131,-1214 1131,-1162 1131,-1162 1131,-1162 1131,-223 1131,-187 1114,-153 1094,-125"/>
<polygon style="fill:black;stroke:black;" points="965.321,-1349.45 954.504,-1351.26 961.16,-1352.23 957,-1355 957,-1355 957,-1355 961.16,-1352.23 959.496,-1358.74 965.321,-1349.45 965.321,-1349.45"/>
<ellipse style="fill:black;stroke:black;" cx="1091.32" cy="-121.255" rx="4.00002" ry="4.00002"/>
<text text-anchor="middle" x="1181" y="-625.9" style="font-family:Times New Roman;font-size:11.00;">visible_exchanges</text>
</g>
<!-- User&#45;&gt;Transfer -->
<g id="edge48" class="edge"><title>User&#45;&gt;Transfer</title>
<path style="fill:none;stroke:black;" d="M748,-1300C741,-1255 735,-1207 735,-1162 735,-1162 735,-1162 735,-630 735,-587 656,-499 603,-445"/>
<polygon style="fill:black;stroke:black;" points="748.039,-1300.19 745.587,-1310.88 749.019,-1305.1 750,-1310 750,-1310 750,-1310 749.019,-1305.1 754.413,-1309.12 748.039,-1300.19 748.039,-1300.19"/>
<ellipse style="fill:black;stroke:black;" cx="599.828" cy="-441.828" rx="4.00002" ry="4.00002"/>
</g>
<!-- ActionMailer::Base -->
<g id="node20" class="node"><title>ActionMailer::Base</title>
<ellipse style="fill:none;stroke:black;" cx="1259" cy="-1463" rx="84.0808" ry="18"/>
<text text-anchor="middle" x="1259" y="-1458.9" style="font-family:Times New Roman;font-size:11.00;">ActionMailer::Base</text>
</g>
<!-- ActionMailer::Base&#45;&gt;RegisterMailer -->
<g id="edge4" class="edge"><title>ActionMailer::Base&#45;&gt;RegisterMailer</title>
<path style="fill:none;stroke:black;" d="M1254,-1435C1244,-1376 1221,-1243 1211,-1187"/>
<polygon style="fill:none;stroke:black;" points="1250.61,-1435.88 1256,-1445 1257.47,-1434.51 1250.61,-1435.88"/>
</g>
<!-- ActionMailer::Base&#45;&gt;UserMailer -->
<g id="edge34" class="edge"><title>ActionMailer::Base&#45;&gt;UserMailer</title>
<path style="fill:none;stroke:black;" d="M1264,-1435C1274,-1376 1297,-1243 1307,-1187"/>
<polygon style="fill:none;stroke:black;" points="1260.53,-1434.51 1262,-1445 1267.39,-1435.88 1260.53,-1434.51"/>
</g>
<!-- ActiveRecord::Observer -->
<g id="node22" class="node"><title>ActiveRecord::Observer</title>
<ellipse style="fill:none;stroke:black;" cx="1466" cy="-1463" rx="105.122" ry="18"/>
<text text-anchor="middle" x="1466" y="-1458.9" style="font-family:Times New Roman;font-size:11.00;">ActiveRecord::Observer</text>
</g>
<!-- ActiveRecord::Observer&#45;&gt;UserObserver -->
<g id="edge6" class="edge"><title>ActiveRecord::Observer&#45;&gt;UserObserver</title>
<path style="fill:none;stroke:black;" d="M1466,-1435C1466,-1376 1466,-1243 1466,-1187"/>
<polygon style="fill:none;stroke:black;" points="1462.5,-1435 1466,-1445 1469.5,-1435 1462.5,-1435"/>
</g>
</g>
</svg>
